<?xml version="1.0" encoding="UTF-8" standalone="no"?>
<svg
	 version="1.1"
	 width="687.19128"
	 height="472.04773"
	 viewBox="-320 450 687.19128 472.04773"
	 id="svg5897"
	 xmlns="http://www.w3.org/2000/svg"
	 xmlns:svg="http://www.w3.org/2000/svg">
	<defs
		 id="defs5901">
		<clipPath
			 clipPathUnits="userSpaceOnUse"
			 id="clipPath15896">
			<rect
				 style="fill:#000000;fill-opacity:0.34902"
				 id="rect15898"
				 width="1720.8057"
				 height="1228.2854"
				 x="-0.36435443"
				 y="687.21387" />
		</clipPath>
	</defs>
	<g
		 id="layer1"
		 clip-path="url(#clipPath15896)"
		 transform="matrix(0.62170635,0,0,0.55144954,-327.36443,66.646769)">
		<g
			 style="fill:#c4e7e9;fill-opacity:1;stroke-linejoin:miter"
			 id="g5680" />
		<g
			 style="fill:#000000;fill-opacity:0.192157;stroke-linejoin:miter"
			 id="g5684">
			<path
				 d="m 1117.1765,1507.2252 -5.045,5.9757 q -35.8688,18.0589 -209.9031,28.8866 -175.23853,10.8184 -412.71082,8.7738 -226.63628,-2.8584 -362.51712,-16.7259 -43.5377,-4.4827 -71.723605,-9.7686 l -23.689506,-5.4345 q -19.522297,-5.6092 -19.741844,-11.7071 5.926498,-18.7132 161.871895,-31.1394 155.94578,-12.4265 390.7935,-12.8985 234.84805,0.472 390.79367,12.8985 155.94543,12.4262 161.87193,31.1394"
				 id="path5682"
				 style="fill:#000000;fill-opacity:0.34902" />
		</g>
		<g
			 style="fill:#ffb591;fill-opacity:1;stroke-linejoin:miter"
			 id="g5688">
			<path
				 d="m 521.59424,811.4372 q -1.1283,-0.0464 -2.76124,1.6367 -0.506,0.2018 -6.4686,8.5482 -1.3462,1.7163 -2.70723,3.1816 -1.34119,1.4542 -3.00417,3.0171 -8.8223,7.63043 -9.15147,8.38416 -2.80701,3.1715 -3.72547,6.90834 -1.13996,4.3506 -0.83106,11.6479 l 13.6991,14.66556 q 22.348,-10.48506 27.05994,-14.21536 1.31091,-0.97495 2.42286,-2.0479 5.52886,-6.05474 8.59985,-8.5643 l 18.25799,-14.67214 4.01856,-3.40246 q 3.76434,-3.36524 4.15576,-5.1125 0.75844,-5.9214 -5.96126,-4.1942 -2.3336,0.5101 -6.91216,2.2028 -22.69034,9.02785 -24.54474,9.436 -7.15246,2.4528 -17.53814,4.9756 7.40784,-9.03823 8.28664,-13.4692 0.74345,-3.1647 -0.0639,-5.8695 -0.96884,-2.8896 -2.71604,-3.0516 z"
				 id="path5686" />
		</g>
		<g
			 style="fill:#000000;fill-opacity:1;stroke-linejoin:miter"
			 id="g5692">
			<path
				 d="m 274.50003,1457.2902 -2.40475,35.9284 q 11.81232,3.3399 18.30732,4.323 3.053,0.7233 14.4338,0.6906 1.9384,0.1214 3.72888,0.5589 1.84369,0.4622 3.67372,1.3587 l 9.86375,5.4106 q 2.92485,1.4873 5.93082,2.5694 6.95465,2.4685 15.16458,3.1154 14.77921,1.0674 22.33685,-5.2523 8.25125,-7.8271 0.4501,-13.9669 -2.2724,-1.8053 -6.18252,-3.6584 -2.34582,-1.2581 -14.37994,-5.5889 -2.4382,-1.0468 -4.23034,-2.4607 -4.11967,-2.7848 -15.0732,-19.2534 l -51.57268,-3.7709 z"
				 id="path5690" />
		</g>
		<g
			 style="fill:#000000;fill-opacity:1;stroke-linejoin:miter"
			 id="g5696">
			<path
				 d="m 159.85312,1467.0017 q -0.40448,6.5139 -2.4917,11.2162 -1.04855,2.4571 -2.56168,4.9923 l -7.28433,11.4017 q -1.73268,2.8045 -2.89163,5.1226 -2.63786,5.2025 -2.43454,9.0067 1.02852,11.6338 19.94009,13.1143 16.27537,0.5717 23.7221,-4.2644 2.47889,-1.6657 3.35162,-4.5161 0.33401,-1.039 0.48549,-2.546 0.14451,-0.7496 0.0491,-5.394 0.0379,-0.8524 0.31918,-1.2256 0.40562,-0.4605 1.06465,-0.3614 l 3.96629,0.9106 q 1.26683,0.2223 2.3472,0.1719 2.11878,-0.1104 3.4718,-1.2445 3.16404,-2.5801 2.69794,-10.8466 -0.33653,-8.0188 -3.34782,-22.8894 l -40.40284,-2.6483 z"
				 id="path5694" />
		</g>
		<g
			 style="fill:#000000;fill-opacity:1;stroke-linejoin:miter"
			 id="g5700">
			<path
				 d="m 252.78503,695.18713 q -22.82258,-0.47003 -30.78648,15.54041 -4.72241,8.87671 -6.07721,23.01816 -1.64102,15.90884 0.90773,28.9166 l 70.71536,-0.9208 q 2.12587,-2.2355 3.86362,-5.36973 4.24655,-7.87557 3.84357,-23.01392 -0.59766,-12.3197 -5.97364,-20.93121 -9.96771,-15.4928 -36.38418,-17.23654 z"
				 id="path5698" />
		</g>
		<g
			 style="fill:#ffffff;fill-opacity:1;stroke-linejoin:miter"
			 id="g5704">
			<path
				 d="m 216.8013,801.1033 -10.48729,12.4782 -1.16542,251.2879 q 76.72211,18.6822 103.12753,10.1759 29.94458,-7.4225 30.8974,-46.7818 3.03083,-38.6506 -27.90829,-153.20967 l -36.15296,-65.42547 -0.78337,-2.13866 -3.38258,-0.57655 -8.70706,28.39965 -8.97266,2.1475 -1.28824,8.85165 -0.22589,0.0362 -17.88444,-8.10906 -16.98687,-36.96274 z"
				 id="path5702" />
		</g>
		<g
			 style="fill:#000000;fill-opacity:1;stroke-linejoin:miter"
			 id="g5708">
			<path
				 d="m 331.33932,1037.7538 q -35.74912,11.3061 -62.42292,13.0134 -32.4171,2.4396 -92.03496,-2.3957 l -0.87704,1.2852 q -2.86413,5.8357 -7.29589,88.5996 -4.19104,75.6888 -15.44028,330.1492 l 50.05111,2.6091 q 8.9701,-145.5847 18.85922,-196.2895 9.1501,-54.4791 36.81326,-110.3812 18.65613,100.0102 20.22733,151.5416 2.79022,51.0701 -7.52722,151.3198 l 57.1965,-3.3386 12.17801,-327.2892 -9.67047,-98.246 z"
				 id="path5706" />
		</g>
		<g
			 style="fill:#000000;fill-opacity:1;stroke-linejoin:miter"
			 id="g5712">
			<path
				 d="m 155.21095,955.2305 -3.40475,45.3093 -6.36217,-10.7101 9.64676,-34.17327 m 53.7811,-145.79559 q -28.26741,17.28259 -73.86559,35.31079 -7.162,26.45441 -12.13173,43.41351 l -17.15368,56.23696 -5.61821,19.8307 q -5.76209,21.33023 -4.195095,30.2909 0.628475,4.9662 3.848665,11.1046 11.51809,19.3971 40.68676,74.1227 l 5.47827,-1.6585 -2.6731,36.5687 29.55352,13.4695 q 35.11303,-58.3412 42.18771,-122.415 7.49945,-56.3875 -6.1122,-196.2379 z"
				 id="path5710" />
		</g>
		<g
			 style="fill:#000000;fill-opacity:1;stroke-linejoin:miter"
			 id="g5716">
			<path
				 d="m 274.52753,809.1515 61.71687,293.861 q 12.46712,5.384 21.77504,11.2319 l 6.74853,-13.9542 -10.38207,-169.2524 43.14968,25.9435 q 4.00152,0.5514 7.38944,-0.2801 7.84283,1.8829 94.53134,-58.3853 L 473.14804,861.51825 Q 441.7114,886.3364 403.94138,900.36053 369.09692,877.1978 358.13544,865.1073 346.52518,853.3136 339.25073,831.33813 l -55.82103,-13.39743 -8.86845,-8.7555 z"
				 id="path5714" />
		</g>
		<g
			 style="fill:#ffb591;fill-opacity:1;stroke-linejoin:miter"
			 id="g5720">
			<path
				 d="m 249.25735,709.791 q -8.72851,-1.5018 -16.24038,10.16817 -5.76464,8.76208 -9.19156,30.79156 -0.80252,-5.89273 -2.40691,-7.9942 -1.53645,-2.26823 -6.09875,-4.46039 -6.28498,7.18446 -5.71823,14.53696 0.4131,7.80234 2.93042,12.3441 1.53402,3.04906 6.00204,2.86095 l -1.56079,36.39862 14.40111,35.43933 20.75476,9.0035 9.62128,-13.2887 10.30651,-21.6725 -1.09975,-9.3536 q 8.35128,-11.4894 10.40047,-18.1121 0.47965,-0.58637 3.93866,-15.729 5.68247,-13.43525 6.28635,-17.11787 2.3107,-9.56703 2.18457,-16.55193 -0.17377,-7.5244 -3.36798,-9.26685 -1.21107,-0.77881 -3.43454,-1.12285 -9.10281,-0.63 -10.09039,-0.9773 -2.42316,-0.46217 -4.45484,-1.349 -2.20422,-0.93446 -5.2259,-3.0179 l -12.08876,-8.97857 q -3.15644,-2.01038 -5.83002,-2.54713 z"
				 id="path5718" />
		</g>
		<g
			 style="fill:#fa5422;fill-opacity:0.207843;stroke-linejoin:miter"
			 id="g5724">
			<path
				 d="m 218.2399,786.8713 30.3413,60.6968 20.89548,-41.9727 q -6.32934,5.9754 -13.02438,7.604 -8.4822,2.18024 -15.6323,-0.471 -5.35394,-1.94044 -10.57298,-8.0472 -4.52035,-5.18346 -11.93589,-17.6913 z"
				 id="path5722" />
		</g>
		<g
			 style="fill:#ffffff;fill-opacity:1;stroke-linejoin:miter"
			 id="g5728">
			<path
				 d="m 172.66124,1058.5289 -25.4261,19.1706 q 3.26886,5.9576 5.5888,8.2983 4.58515,4.8864 10.48362,1.2131 5.59135,-2.9723 19.16928,-18.5416 l -9.80863,-10.1328 z"
				 id="path5726" />
		</g>
		<g
			 style="fill:#ffb591;fill-opacity:1;stroke-linejoin:miter"
			 id="g5732">
			<path
				 d="m 196.78769,1068.1509 q -12.32999,-0.3131 -15.0027,0.2413 l -20.26828,20.3386 17.77644,28.8235 q 8.87023,-15.8869 16.64208,-34.1091 l 3.61517,-4.7672 q 13.12692,1.5295 16.59354,-4.8688 0.93776,-2.6156 -3.49616,-3.9468 -4.75105,-1.3654 -15.75691,-1.7087 z"
				 id="path5730" />
		</g>
		<g
			 style="fill:#000000;fill-opacity:0.411765;stroke-linejoin:miter"
			 id="g5736">
			<path
				 d="m 221.33218,833.2986 -7.72039,5.73405 20.93084,4.68329 -13.20918,-10.41654 z m 53.64609,-5.08455 -15.58237,15.8692 21.08957,-10.75345 -5.49539,-5.1049 z m -24.99078,21.98935 18.89456,200.4499 q -1.24262,-30.157 -7.78769,-99.6236 -5.15619,-55.43046 -11.09534,-100.74436 z"
				 id="path5734" />
		</g>
		<g
			 style="fill:#000000;fill-opacity:1;stroke-linejoin:miter"
			 id="g5740">
			<path
				 d="m 721.8129,706.399 q 0.30197,-0.2418 0.42776,-0.34004 0.11314,-0.0859 0.2262,-0.15082 z"
				 id="path5738" />
		</g>
		<g
			 style="fill:#000000;fill-opacity:1;stroke-linejoin:miter"
			 id="g5744">
			<path
				 d="m 721.8129,706.399 q 0.30197,-0.2418 0.42776,-0.34004 0.11314,-0.0859 0.2262,-0.15082 z"
				 id="path5742" />
		</g>
		<g
			 style="fill:#222b32;fill-opacity:1;stroke-linejoin:miter"
			 id="g5748">
			<path
				 d="m 631.9849,782.89667 c -0.009,0 -0.0176,1.8e-4 -0.0265,7.3e-4 v 5e-4 c -0.005,0 -0.01,0 -0.01,0 l -2.7e-4,2e-4 c -5.0011,-10e-4 -8.8438,3.8482 -8.8639,8.85306 L 622.3629,969.115 c -0.0204,5.0183 3.81215,8.8806 8.82906,8.9133 h 9.7e-4 l 302.97724,1.2196 v 7e-4 c 0.014,-7e-4 0.018,-7e-4 0.0189,-7e-4 6e-4,0 0.004,0 0.0193,0 4.99951,9e-4 8.84326,-3.8244 8.86401,-8.8296 l 0.72135,-177.3641 c 0.0201,-5.0077 -3.79563,-8.8906 -8.8022,-8.9141 l -6.3e-4,1.6e-4 c -0.003,-1.6e-4 -0.0303,-1.6e-4 -0.0338,-1.6e-4 l 0.005,1.6e-4 -302.97605,-1.24359 z"
				 id="path5746" />
		</g>
		<g
			 style="fill:#000000;fill-opacity:1;stroke-linejoin:miter"
			 id="g5752">
			<path
				 d="m 632.0307,772.05963 c -10.82776,-0.0444 -19.74097,8.81847 -19.78455,19.64691 L 611.5245,969.0705 c -0.0441,10.8273 8.79667,19.7403 19.6245,19.7846 l 302.9769,1.2423 c 10.8278,0.0332 19.74086,-8.80767 19.78474,-19.6352 l 0.7215,-177.36296 C 954.67584,782.2711 945.8357,773.3361 935.0078,773.2918 l -302.9771,-1.2204 z m -0.0458,11.28407 302.97714,1.243 c 4.77126,0.008 8.40446,3.693 8.38513,8.4661 l -0.72193,177.3638 c -0.019,4.771 -3.68219,8.4042 -8.4533,8.38534 L 631.1948,977.58105 c -4.7712,-0.03 -8.4046,-3.69268 -8.3852,-8.46441 L 623.53107,791.753 c 0.0194,-4.7728 3.68249,-8.4278 8.45383,-8.4085 z"
				 id="path5750" />
		</g>
		<g
			 style="fill:#000000;fill-opacity:1;stroke-linejoin:miter"
			 id="g5756">
			<path
				 d="m 593.3821,991.959 c -0.0484,11.912 8.1379,21.5392 18.35203,21.5801 l 341.60492,1.3999 c 10.21385,0.03 18.4787,-9.5287 18.5271,-21.4418 l -378.48431,-1.52686 z"
				 id="path5754" />
		</g>
		<g
			 style="fill:#ff0000;fill-opacity:1;stroke-linejoin:miter"
			 id="g5760">
			<path
				 d="m 741.8947,938.2886 c -4.5689,0.95957 -10.3715,3.56394 -14.0724,6.30515 -6.5338,4.79755 -12.0165,12.74768 -14.0269,20.24078 -0.5026,1.87337 -2.96996,15.39753 -5.5286,30.10981 -2.513,14.71216 -5.11726,29.51586 -5.71114,32.89686 -1.73632,9.6407 -1.7821,10.463 -0.95971,13.7528 2.513,9.7777 12.97595,14.8036 22.20545,10.6459 2.056,-0.9596 4.8431,-3.4727 16.21996,-14.8494 l 13.75274,-13.6614 29.8814,10e-5 h 29.8813 l 13.75275,13.6156 c 14.57515,14.5295 15.44315,15.2148 20.69765,16.1745 5.30003,1.005 12.0621,-1.782 15.0777,-6.1226 3.7924,-5.5285 3.88377,-7.1732 1.0055,-23.6675 -1.27945,-7.4018 -3.7467,-21.7028 -5.483,-31.75496 -4.3861,-25.26648 -4.5689,-26.0888 -5.8024,-29.69824 -4.24936,-12.0166 -15.078,-21.4289 -27.5515,-23.9876 -4.1119,-0.868 -6.3965,-0.91377 -41.80625,-0.8678 -34.81595,-7e-5 -37.7403,0.0912 -41.53255,0.868 z m 12.7477,24.9012 v 6.8535 l 6.9905,0.13694 6.945,0.13726 v 4.52314 4.56906 l -6.808,0.002 c -5.0259,-0.002 -6.85346,0.1346 -6.9905,0.5459 -0.0914,0.3197 -0.137,3.1526 -0.0914,6.3052 0.0455,3.1525 0,6.07667 -0.13716,6.4879 -0.18274,0.731 -0.77674,0.8224 -4.70594,0.8225 l -4.52337,0.002 -0.13713,-6.99305 -0.1369,-6.945 -6.94514,-0.137 -6.99042,-0.13686 v -4.52344 -4.56885 l 7.08191,0.002 7.08205,-0.003 v -7.0819 -7.1277 l 4.70603,0.137 4.66047,0.1371 z m 65.38256,-6.35105 c 2.10184,1.00515 3.10688,2.9699 2.78694,5.52845 -0.27394,2.3304 -1.5991,3.9751 -3.79225,4.70604 -3.28965,1.09662 -7.03615,-1.59904 -7.03615,-5.07141 0,-4.6604 3.8835,-7.12787 8.04146,-5.16308 z m -12.33642,13.66145 c 0.91382,0.6854 1.73633,1.8734 2.05603,2.92406 0.45697,1.50784 0.41119,2.05614 -0.31983,3.51818 -1.09644,2.23896 -2.87829,3.47246 -4.84307,3.47246 -4.47767,0 -7.21907,-4.38615 -5.16291,-8.3156 1.46204,-2.8327 5.61974,-3.6094 8.26978,-1.5991 z m 25.815,-0.3657 c 2.65002,1.59926 3.42682,5.30013 1.64486,7.9502 -2.97,4.43184 -9.9149,2.3301 -9.9149,-3.0614 0,-1.14226 0.31997,-2.5585 0.73116,-3.19817 1.59904,-2.37583 5.02588,-3.15263 7.53888,-1.69063 z m -12.3363,13.7528 c 2.69549,2.42166 2.19293,7.3561 -0.95948,9.001 -2.60446,1.3247 -5.93982,0.54835 -7.49336,-1.782 -0.4112,-0.6396 -0.7309,-2.056 -0.7309,-3.2895 0,-1.87344 0.2283,-2.33035 1.64473,-3.6554 1.37073,-1.3249 1.96473,-1.5535 3.88361,-1.5535 1.78186,-5e-5 2.513,0.2286 3.6554,1.2794 z"
				 id="path5758" />
		</g>
		<g
			 style="fill:#000000;fill-opacity:0.203922;stroke-linejoin:miter"
			 id="g5764">
			<path
				 d="m 713.352,966.8776 c -0.9388,4.6733 -2.98115,15.96816 -5.0852,28.06674 -2.513,14.71216 -5.11726,29.51586 -5.71114,32.89686 -1.73632,9.6407 -1.7821,10.463 -0.95971,13.7528 1.90912,7.4281 8.40655,12.1139 15.46565,12.1139 2.233,0 4.522,-0.469 6.7398,-1.468 2.056,-0.9596 4.8431,-3.4727 16.21996,-14.8494 l 13.75274,-13.6614 h 59.7627 l 13.75275,13.6132 c 14.57515,14.5295 15.44315,15.2148 20.69765,16.1745 0.7322,0.1388 1.4923,0.2051 2.2665,0.2051 4.83047,10e-5 10.21224,-2.5866 12.8112,-6.3277 3.7924,-5.5285 3.88377,-7.1732 1.0055,-23.6675 -1.27945,-7.4018 -3.7467,-21.7028 -5.483,-31.75496 -2.08343,-12.00158 -3.21856,-18.48784 -3.9682,-22.37744 l -0.006,0.002 q -10.0843,35.9709 -49.6683,46.3629 -12.4229,2.946 -24.4882,2.9459 -13.98596,0 -27.4914,-3.9586 -22.37597,-6.7353 -32.02843,-25.0203 -4.88937,-8.4572 -7.58007,-23.0516 z"
				 id="path5762" />
		</g>
		<g
			 style="fill:#000000;fill-opacity:0.0705882;stroke-linejoin:miter"
			 id="g5768">
			<path
				 d="m 741.4256,1019.7913 -25.09656,33.9001 h 0.005 c 0.2419,0.01 0.48464,0.014 0.728,0.014 2.233,0 4.522,-0.469 6.7398,-1.468 2.056,-0.9596 4.8431,-3.4727 16.21996,-14.8494 l 13.75274,-13.6614 h 59.7627 l 13.75275,13.6132 c 14.57515,14.5295 15.44315,15.2148 20.69765,16.1745 0.7322,0.1388 1.4923,0.2051 2.2665,0.2051 1.66085,0 3.3869,-0.3056 5.0425,-0.859 h 0.006 l -23.39874,-33.0359 -0.0155,-0.022 z"
				 id="path5766" />
		</g>
		<g
			 style="fill:#ffffff;fill-opacity:1;stroke-linejoin:miter"
			 id="g5772">
			<path
				 d="m 745.2759,956.0621 4.70603,0.137 4.66047,0.1371 v 6.8536 6.8535 l 6.9905,0.13694 6.945,0.13726 v 4.52314 4.56906 l -6.808,0.002 c -5.0259,-0.002 -6.85346,0.1346 -6.9905,0.5459 -0.0914,0.3197 -0.137,3.1526 -0.0914,6.3052 0.0455,3.1525 0,6.07667 -0.13716,6.4879 -0.18274,0.731 -0.77674,0.8224 -4.70594,0.8225 l -4.52337,0.002 -0.13713,-6.99305 -0.1369,-6.945 -6.94514,-0.137 -6.99042,-0.13686 v -4.52344 -4.56885 l 14.16396,0.002 v -7.08443 z"
				 id="path5770" />
		</g>
		<g
			 style="fill:#ffffff;fill-opacity:1;stroke-linejoin:miter"
			 id="g5776">
			<path
				 d="m 817.1781,956.1588 c 0.9023,-5e-5 1.8669,0.2169 2.84686,0.67995 2.10184,1.00515 3.10688,2.9699 2.78694,5.52845 -0.27394,2.3304 -1.5991,3.9751 -3.79225,4.70604 -0.50655,0.16896 -1.02411,0.24793 -1.53695,0.24796 -2.81784,0 -5.4992,-2.3818 -5.4992,-5.31937 0,-3.56213 2.26876,-5.84303 5.1946,-5.84303 z"
				 id="path5774" />
		</g>
		<g
			 style="fill:#ffffff;fill-opacity:1;stroke-linejoin:miter"
			 id="g5780">
			<path
				 d="m 830.70264,969.3945 c 0.96736,0 1.93792,0.23795 2.8009,0.74 2.65002,1.59926 3.42682,5.30013 1.64486,7.9502 -1.11056,1.6567 -2.7763,2.40065 -4.4272,2.40065 -2.7648,0 -5.4877,-2.08612 -5.4877,-5.46205 0,-1.14226 0.31997,-2.5585 0.73116,-3.19817 1.05004,-1.56013 2.88818,-2.43063 4.73798,-2.43063 z"
				 id="path5778" />
		</g>
		<g
			 style="fill:#ffffff;fill-opacity:1;stroke-linejoin:miter"
			 id="g5784">
			<path
				 d="m 804.24945,969.3758 c 1.21025,0 2.43335,0.36144 3.43909,1.1244 0.91382,0.6854 1.73633,1.8734 2.05603,2.92406 0.45697,1.50784 0.41119,2.05614 -0.31983,3.51818 -1.09644,2.23896 -2.87829,3.47246 -4.84307,3.47246 -4.47767,0 -7.21907,-4.38615 -5.16291,-8.3156 0.90711,-1.7575 2.85199,-2.7235 4.83069,-2.7235 z"
				 id="path5782" />
		</g>
		<g
			 style="fill:#ffffff;fill-opacity:1;stroke-linejoin:miter"
			 id="g5788">
			<path
				 d="m 817.51184,982.6079 c 1.78186,-5e-5 2.513,0.2286 3.6554,1.2794 2.69549,2.42166 2.19293,7.3561 -0.95948,9.001 -0.85791,0.4364 -1.79506,0.64466 -2.72161,0.6448 -1.88675,0 -3.72995,-0.86403 -4.77175,-2.4268 -0.4112,-0.6396 -0.7309,-2.056 -0.7309,-3.2895 0,-1.87344 0.2283,-2.33035 1.64473,-3.6554 1.37073,-1.3249 1.96473,-1.5535 3.88361,-1.5535 z"
				 id="path5786" />
		</g>
		<g
			 style="fill:#000000;fill-opacity:0.054902;stroke-linejoin:miter"
			 id="g5792">
			<path
				 d="m 785.78656,937.4176 c -0.76966,9e-4 -1.55609,0.002 -2.35931,0.003 -34.81595,-7e-5 -37.7403,0.0912 -41.53255,0.868 -4.5689,0.95957 -10.3715,3.56394 -14.0724,6.30515 -6.5338,4.79755 -12.0165,12.74768 -14.0269,20.24078 -0.5026,1.87337 -2.96996,15.39753 -5.5286,30.10981 -2.513,14.71216 -5.11726,29.51586 -5.71114,32.89686 -1.73632,9.6407 -1.7821,10.463 -0.95971,13.7528 1.8432,7.1719 7.96395,11.7873 14.73765,12.0974 h 10e-4 c 0.24157,0.01 0.48394,0.014 0.72694,0.014 2.233,0 4.522,-0.469 6.7398,-1.468 2.056,-0.9596 4.8431,-3.4727 16.21996,-14.8494 l 13.75274,-13.6614 32.0177,1e-4 2.5e-4,-86.3116 z"
				 id="path5790" />
		</g>
		<g
			 style="fill:#ffffff;fill-opacity:0.996078;stroke-linejoin:miter"
			 id="g5796">
			<path
				 d="m 651.5004,807.72156 -3e-5,4e-5 -1.3e-4,4e-4 1.3e-4,-4e-4 3e-5,-4e-5 -3e-5,4e-5 -1.3e-4,4e-4 q 1.3e-4,-4e-4 1.6e-4,-4.4e-4"
				 id="path5794" />
		</g>
		<g
			 style="fill:#ffffff;fill-opacity:0.996078;stroke-linejoin:miter"
			 id="g5800">
			<path
				 d="m 651.5004,807.72156 -3e-5,4e-5 -1.3e-4,4e-4 1.3e-4,-4e-4 3e-5,-4e-5 -3e-5,4e-5 -1.3e-4,4e-4 q 1.3e-4,-4e-4 1.6e-4,-4.4e-4"
				 id="path5798" />
		</g>
		<g
			 style="fill:#ffffff;fill-opacity:0.996078;stroke-linejoin:miter"
			 id="g5804">
			<path
				 d="m 675.244,993.6212 v 1.4e-4 4.6e-4 -4.6e-4 -1.4e-4 1.4e-4 4.6e-4 q 0,-4.6e-4 0,-6e-4"
				 id="path5802" />
		</g>
		<g
			 style="fill:#000000;fill-opacity:1;stroke-linejoin:miter"
			 id="g5808">
			<path
				 d="m 704.0059,980.2734 0.0752,0.30094 0.0752,0.3009 -0.1504,-0.60184"
				 id="path5806" />
		</g>
		<g
			 id="g5814">
			<g
				 style="fill:#ffffff;fill-opacity:1;stroke-linejoin:miter"
				 id="g5812">
				<path
					 d="m 735.1766,841.23883 7.2513,13.78522 h -1.0052 q -5.8154,0 -9.54886,1.14865 -3.73344,1.1488 -5.52834,2.08224 z m -6.2463,-11.91827 2.44104,4.66681 -17.80548,33.38593 h 7.75394 l 0.2155,-0.4308 q 0.43076,-0.5744 2.36924,-1.50775 1.8667,-0.86155 4.66681,-1.72315 2.72821,-0.7898 6.1026,-1.3642 3.37451,-0.5744 6.82075,-0.5744 l 4.4513,-5e-5 2.9436,5.60022 8.11315,1.3e-4 -20.10309,-38.05274 z m 34.89306,0.86154 3.66164,5.95926 v 31.23194 l 8.113,-10e-5 -4e-5,-21.7546 13.13894,17.51867 13.1386,-17.51862 5e-5,21.75465 h 8.11305 l -1.4e-4,-31.23194 3.66169,-5.95926 h -9.04645 l -15.86694,21.0368 -15.86706,-21.0368 z m 62.39104,-3e-5 1e-4,37.19113 h 30.6572 l -1e-4,-7.467 -23.3338,5e-5 4e-5,-5.88735 q 1.22046,-0.6462 2.22571,-1.07694 1.00515,-0.43086 2.22559,-0.64626 1.22056,-0.2154 2.94372,-0.359 1.65131,-0.0718 4.23594,-0.0718 h 5.4565 v -7.39517 h -5.4565 q -3.2308,0 -6.2463,0.35904 -2.9436,0.35906 -5.38466,1.79496 l 6e-5,-9.0464 21.9696,-10e-5 v -7.39513 z m -136.1261,-1.22052 q -4.1641,0 -8.1129,1.29235 -3.94885,1.29236 -7.0361,3.8053 -3.08725,2.5129 -4.954,6.1745 -1.8667,3.66156 -1.8667,8.4003 0,4.73856 1.8666,8.472 1.79513,3.6619 4.88235,6.2466 3.01545,2.5129 6.9643,3.8771 3.94879,1.2922 8.18475,1.2922 4.3078,0 8.2566,-1.3641 3.9488,-1.2924 7.036,-3.94894 l -6e-5,-17.01593 h -14.28747 l 3.15899,6.96437 3.8053,-1.3e-4 -6e-5,5.95923 q -3.6615,1.9386 -7.8257,1.9386 -2.6565,0 -5.24125,-0.7898 -2.51285,-0.71796 -4.5232,-2.2257 -2.01031,-1.5077 -3.23075,-3.80525 -1.22054,-2.29748 -1.22054,-5.4566 0,-3.15905 1.22054,-5.52835 1.1487,-2.2976 3.15904,-3.8053 2.01031,-1.5078 4.52316,-2.2975 2.5129,-0.718 5.2411,-0.718 2.65645,0 5.31295,0.78976 2.58471,0.71794 4.66668,2.15387 l 4.95407,-5.74383 q -3.08725,-2.2974 -6.96426,-3.518 -3.87704,-1.14875 -7.96944,-1.14875 z m 193.3481,1.5e-4 q -3.0873,0 -5.88727,0.78964 -2.80013,0.78986 -4.88208,2.29756 -2.08215,1.43596 -3.37445,3.5181 -1.2206,2.0821 -1.2206,4.59505 -4e-5,3.0155 1.1487,5.16945 1.1487,2.0821 3.23084,3.44615 2.01026,1.29245 4.81036,1.86685 2.8,0.5743 6.17444,0.5743 5.81561,0 8.68736,0.7897 2.80007,0.78984 2.80007,3.3027 0,3.0155 -3.15907,4.5233 -3.1589,1.5078 -8.32824,1.5078 -2.51286,0 -4.30776,-0.6461 -1.795,-0.5745 -3.1592,-1.50785 -1.2923,-0.93335 -2.2974,-2.01031 -0.9334,-1.07694 -1.79496,-1.9386 l -5.31294,5.38483 q 3.08735,3.66183 7.53877,5.81563 4.37953,2.08213 9.33349,2.08213 3.94884,0 7.39504,-0.86157 3.4462,-0.78966 6.03087,-2.4411 2.51283,-1.57946 3.94879,-4.09241 1.43579,-2.44128 1.43584,-5.81579 0,-2.22571 -0.6462,-4.3078 -0.64615,-2.08216 -2.5846,-3.66166 -1.93856,-1.5795 -5.6001,-2.5129 -3.5898,-0.9334 -9.47714,-0.9334 -2.72826,5e-5 -4.37956,-0.2871 -1.57954,-0.28726 -2.4411,-0.78976 -0.7897,-0.43078 -1.0769,-1.14874 -0.2154,-0.64624 -0.2154,-1.50775 0,-0.7898 0.71795,-1.57959 0.64611,-0.71796 1.7232,-1.29236 1.07678,-0.50256 2.44095,-0.8615 1.2924,-0.28724 2.6565,-0.28724 3.23086,0 6.1027,0.71794 2.8,0.718 4.9539,2.51295 l 4.954,-5.74385 q -4.09236,-2.8001 -7.9694,-3.73344 -3.87705,-0.93326 -7.9694,-0.93326 z"
					 id="path5810" />
			</g>
		</g>
		<g
			 style="fill:#ffffff;fill-opacity:1;stroke-linejoin:miter"
			 id="g5818">
			<path
				 d="m 548.5508,1071.6548 247.12266,2e-4 247.12284,10e-4 q -3e-4,153.0891 -3e-4,306.1787 -247.12254,0 -494.24534,3e-4 1.4e-4,-153.0901 1.4e-4,-306.1802 z"
				 id="path5816" />
		</g>
		<g
			 style="fill:#ffffff;fill-opacity:1;stroke-linejoin:miter"
			 id="g5822">
			<path
				 d="m 863.6022,977.3147 v 10e-4 -7e-4 -5e-4 0.001 -0.001 5e-4 q 0,-5e-4 0,-5e-4 z"
				 id="path5820" />
		</g>
		<g
			 style="fill:#e6e6e6;fill-opacity:1;stroke-linejoin:miter"
			 id="g5826">
			<path
				 d="m 586.76245,1255.8877 99.03535,7e-4 v 14.1643 l -99.03535,5e-4 z m 0,0 99.03535,7e-4 v 14.1643 l -99.03535,5e-4 z m 0,0 99.03535,7e-4 v 14.1643 l -99.03535,5e-4 z m 0,0 99.03535,7e-4 v 14.1643 l -99.03535,5e-4 z"
				 id="path5824" />
		</g>
		<g
			 style="fill:#e6e6e6;fill-opacity:1;stroke-linejoin:miter"
			 id="g5830">
			<path
				 d="m 586.7624,1284.0974 75.50713,7e-4 v 14.1649 l -75.50713,4e-4 z m 0,0 75.50713,7e-4 v 14.1649 l -75.50713,4e-4 z m 0,0 75.50713,7e-4 v 14.1649 l -75.50713,4e-4 z m 0,0 75.50713,7e-4 v 14.1649 l -75.50713,4e-4 z"
				 id="path5828" />
		</g>
		<g
			 style="fill:#e6e6e6;fill-opacity:1;stroke-linejoin:miter"
			 id="g5834">
			<path
				 d="m 586.7624,1307.7463 99.0354,5e-4 v 14.1646 l -99.0354,7e-4 z m 0,0 99.0354,5e-4 v 14.1646 l -99.0354,7e-4 z m 0,0 99.0354,5e-4 v 14.1646 l -99.0354,7e-4 z m 0,0 99.0354,5e-4 v 14.1646 l -99.0354,7e-4 z"
				 id="path5832" />
		</g>
		<g
			 style="fill:#e6e6e6;fill-opacity:1;stroke-linejoin:miter"
			 id="g5838">
			<path
				 d="m 586.7624,1336.0764 99.0354,3e-4 v 9.4831 l -99.0354,5e-4 z m 0,0 99.0354,3e-4 v 9.4831 l -99.0354,5e-4 z m 0,0 99.0354,3e-4 v 9.4831 l -99.0354,5e-4 z m 0,0 99.0354,3e-4 v 9.4831 l -99.0354,5e-4 z"
				 id="path5836" />
		</g>
		<g
			 style="fill:#e6e6e6;fill-opacity:1;stroke-linejoin:miter"
			 id="g5842">
			<path
				 d="m 699.8428,1284.0974 75.50693,7e-4 v 14.1649 l -75.50693,4e-4 z m 0,0 75.50693,7e-4 v 14.1649 l -75.50693,4e-4 z m 0,0 75.50693,7e-4 v 14.1649 l -75.50693,4e-4 z m 0,0 75.50693,7e-4 v 14.1649 l -75.50693,4e-4 z"
				 id="path5840" />
		</g>
		<g
			 style="fill:#e6e6e6;fill-opacity:1;stroke-linejoin:miter"
			 id="g5846">
			<path
				 d="m 699.8428,1307.7463 99.03525,5e-4 v 14.1646 l -99.03525,7e-4 z m 0,0 99.03525,5e-4 v 14.1646 l -99.03525,7e-4 z m 0,0 99.03525,5e-4 v 14.1646 l -99.03525,7e-4 z m 0,0 99.03525,5e-4 v 14.1646 l -99.03525,7e-4 z"
				 id="path5844" />
		</g>
		<g
			 style="fill:#e6e6e6;fill-opacity:1;stroke-linejoin:miter"
			 id="g5850">
			<path
				 d="m 699.8428,1336.0764 99.03525,3e-4 v 9.4831 l -99.03525,5e-4 z m 0,0 99.03525,3e-4 v 9.4831 l -99.03525,5e-4 z m 0,0 99.03525,3e-4 v 9.4831 l -99.03525,5e-4 z m 0,0 99.03525,3e-4 v 9.4831 l -99.03525,5e-4 z"
				 id="path5848" />
		</g>
		<g
			 style="fill:#ffffff;fill-opacity:1;stroke-linejoin:miter"
			 id="g5854">
			<path
				 d="m 978.2633,1147.5791 c -3.9103,0 -8.22985,-3.1995 -8.22985,-7.1101 v -67.5442 l 72.21875,74.6543 -63.9889,10e-4 z"
				 id="path5852" />
		</g>
		<g
			 style="fill:#e6e6e6;fill-opacity:1;stroke-linejoin:miter"
			 id="g5858">
			<path
				 d="m 852.70276,1222.2329 156.41734,5e-4 v 7.1094 l -156.41734,5e-4 z m 0,0 156.41734,5e-4 v 7.1094 l -156.41734,5e-4 z m 0,0 156.41734,5e-4 v 7.1094 l -156.41734,5e-4 z m 0,0 156.41734,5e-4 v 7.1094 l -156.41734,5e-4 z"
				 id="path5856" />
		</g>
		<g
			 style="fill:#b3b3b3;fill-opacity:1;stroke-linejoin:miter"
			 id="g5862">
			<path
				 d="M 852.70276,1236.4524 H 980.6808 v 3.5542 l -127.97804,9e-4 z m 0,0 H 980.6808 v 3.5542 l -127.97804,9e-4 z m 0,0 H 980.6808 v 3.5542 l -127.97804,9e-4 z m 0,0 H 980.6808 v 3.5542 l -127.97804,9e-4 z"
				 id="path5860" />
		</g>
		<g
			 style="fill:#b3b3b3;fill-opacity:1;stroke-linejoin:miter"
			 id="g5866">
			<path
				 d="m 891.8071,1314.6616 113.7582,5e-4 v 3.5542 l -113.7582,10e-4 z m 0,0 113.7582,5e-4 v 3.5542 l -113.7582,10e-4 z m 0,0 113.7582,5e-4 v 3.5542 l -113.7582,10e-4 z m 0,0 113.7582,5e-4 v 3.5542 l -113.7582,10e-4 z"
				 id="path5864" />
		</g>
		<g
			 style="fill:#b3b3b3;fill-opacity:1;stroke-linejoin:miter"
			 id="g5870">
			<path
				 d="m 891.8071,1325.3262 113.7582,7e-4 v 3.5547 l -113.7582,5e-4 z m 0,0 113.7582,7e-4 v 3.5547 l -113.7582,5e-4 z m 0,0 113.7582,7e-4 v 3.5547 l -113.7582,5e-4 z m 0,0 113.7582,7e-4 v 3.5547 l -113.7582,5e-4 z"
				 id="path5868" />
		</g>
		<g
			 style="fill:#b3b3b3;fill-opacity:1;stroke-linejoin:miter"
			 id="g5874">
			<path
				 d="m 891.8071,1346.656 113.7582,7e-4 v 3.5545 l -113.7582,7e-4 z m 0,0 113.7582,7e-4 v 3.5545 l -113.7582,7e-4 z m 0,0 113.7582,7e-4 v 3.5545 l -113.7582,7e-4 z m 0,0 113.7582,7e-4 v 3.5545 l -113.7582,7e-4 z"
				 id="path5872" />
		</g>
		<g
			 style="fill:#b3b3b3;fill-opacity:1;stroke-linejoin:miter"
			 id="g5878">
			<path
				 d="m 891.8071,1357.3208 113.7582,10e-4 v 3.5542 l -113.7582,5e-4 z m 0,0 113.7582,10e-4 v 3.5542 l -113.7582,5e-4 z m 0,0 113.7582,10e-4 v 3.5542 l -113.7582,5e-4 z m 0,0 113.7582,10e-4 v 3.5542 l -113.7582,5e-4 z"
				 id="path5876" />
		</g>
		<g
			 style="fill:#b3b3b3;fill-opacity:1;stroke-linejoin:miter"
			 id="g5882">
			<path
				 d="m 852.70276,1247.1172 149.30754,10e-4 v 3.5542 l -149.30754,5e-4 z m 0,0 149.30754,10e-4 v 3.5542 l -149.30754,5e-4 z m 0,0 149.30754,10e-4 v 3.5542 l -149.30754,5e-4 z m 0,0 149.30754,10e-4 v 3.5542 l -149.30754,5e-4 z"
				 id="path5880" />
		</g>
		<g
			 style="fill:#b3b3b3;fill-opacity:1;stroke-linejoin:miter"
			 id="g5886">
			<path
				 d="m 852.70276,1257.7825 85.31848,5e-4 v 3.5544 l -85.31848,7e-4 z m 0,0 85.31848,5e-4 v 3.5544 l -85.31848,7e-4 z m 0,0 85.31848,5e-4 v 3.5544 l -85.31848,7e-4 z m 0,0 85.31848,5e-4 v 3.5544 l -85.31848,7e-4 z"
				 id="path5884" />
		</g>
		<g
			 style="fill:#929fa8;fill-opacity:1;stroke-linejoin:miter"
			 id="g5890">
			<path
				 d="m 832.7698,1091.6221 91.2816,7e-4 91.2816,2e-4 q 0,48.7522 0,97.504 -91.2816,2e-4 -182.5632,7e-4 0,-48.7525 0,-97.5056"
				 id="path5888" />
		</g>
		<g
			 style="fill:#3c464f;fill-opacity:1;stroke-linejoin:miter"
			 id="g5894">
			<path
				 d="m 673.2347,1082.2397 -3.46566,19.7417 0.0136,0.014 c -4.23651,0.6919 -8.33538,1.8015 -12.25045,3.279 v -0.013 l -12.8634,-15.3694 -12.09043,6.9851 6.86493,18.8218 0.0267,0.013 c -3.27786,2.6907 -6.28213,5.7053 -8.9712,8.9846 l -0.0132,-0.04 -18.82196,-6.8653 -6.98494,12.0906 15.3693,12.8772 c -1.475,3.9121 -2.5746,8.0047 -3.26565,12.2375 l -0.0136,-0.014 -19.7418,3.4658 v 13.97 l 19.7419,3.4658 0.0135,-0.013 c 0.69115,4.2326 1.79065,8.3254 3.26575,12.2375 l -15.3694,12.8765 6.9849,12.0906 18.822,-6.865 0.0132,-0.04 c 2.68907,3.2788 5.69334,6.2937 8.9712,8.9844 l -0.0267,0.013 -6.86493,18.822 12.09033,6.9852 12.8635,-15.3697 v -0.014 c 3.9148,1.4775 8.01394,2.5871 12.25045,3.2795 l -0.0137,0.013 3.4658,19.7419 13.9567,5e-4 3.4657,-19.7422 -0.0132,-0.013 c 4.2354,-0.6902 8.3355,-1.7908 12.2504,-3.2659 l 12.8767,15.3697 12.09045,-6.9852 -6.8783,-18.822 c 3.27035,-2.6836 6.27289,-5.6885 8.95771,-8.9577 l 18.83524,6.865 6.9718,-12.0906 -15.35605,-12.877 c 1.47535,-3.9121 2.58789,-8.0034 3.2788,-12.237 l 19.74205,-3.4519 1.4e-4,-13.97 -19.74214,-3.4658 c -0.6915,-4.2288 -1.80534,-8.3157 -3.279,-12.2237 l 15.3562,-12.8774 -6.97165,-12.0903 -18.83539,6.8649 c -2.68482,-3.2695 -5.6872,-6.2736 -8.95766,-8.9575 l 6.8784,-18.8225 -12.0906,-6.9848 -12.8764,15.3698 c -3.9152,-1.4751 -8.0152,-2.5754 -12.25056,-3.2658 l 0.0133,-0.013 -3.46595,-19.7422 -13.9567,2e-4 z m 6.985,33.9917 c 27.1763,0 49.2168,22.0254 49.2168,49.2 0,27.1763 -22.03855,49.1992 -49.2168,49.1992 -27.17624,0 -49.1997,-22.0251 -49.19956,-49.1992 0,-27.1765 22.02456,-49.2 49.19956,-49.2 z"
				 id="path5892" />
		</g>
	</g>
</svg>
