<?xml version="1.0" encoding="UTF-8" standalone="no"?>
<svg
	 version="1.1"
	 width="1332.2906"
	 height="670.68408"
	 viewBox="0 0 1332.2906 670.68408"
	 id="svg175"
	 xmlns="http://www.w3.org/2000/svg"
	 xmlns:svg="http://www.w3.org/2000/svg">
	<defs
		 id="defs179" />
	<g
		 id="layer1"
		 transform="translate(103.08611,-711.578)">
		<g
			 style="fill:#40beae;fill-opacity:1;stroke-linejoin:miter"
			 id="g4" />
		<g
			 style="fill:#000000;fill-opacity:1;stroke-linejoin:miter"
			 id="g8">
			<path
				 d="m 817.9103,761.5201 q -1.67666,-0.4076 -3.4108,-0.7444 l -0.24816,-0.0482 q -12.15344,-2.36074 -23.44494,-1.2081 -11.2434,0.9046 -20.5845,5.2673 -9.0933,4.41124 -15.5403,12.42485 -6.1989,8.06175 -8.5115,19.96735 l 36.862,16.9404 q 1.25245,-6.4485 7.12854,-10.1974 5.87596,-3.749 13.31676,-2.3037 0.4806,0.0934 0.94826,0.2068 5.81264,1.41304 9.69031,5.9781 3.98963,4.63544 2.73718,11.0841 -0.86719,4.4647 -5.45495,8.2066 -4.3395,3.7898 -15.7615,8.263 -5.5388,2.0128 -10.52574,5.16255 -4.69116,2.94955 -8.97571,7.77975 -3.98779,4.6306 -7.07285,11.23795 -3.08517,6.60765 -4.8679,15.78455 l -1.4453,7.4409 34.22785,6.6486 q 0.53005,-2.7283 1.25989,-5.1603 1.41162,-4.6161 3.42932,-7.0554 5.51744,-5.87765 11.34509,-9.37893 5.82801,-3.50087 11.51099,-6.25747 5.63516,-2.5091 11.02196,-5.06614 5.339,-2.30886 9.9746,-6.29866 4.38796,-4.0381 7.9209,-10.3012 3.4851,-6.01513 5.46035,-16.1844 2.3125,-11.9053 -0.0249,-22.3974 -2.13769,-10.1959 -8.22949,-18.5859 -5.89221,-8.094 -15.0426,-13.98946 -7.85865,-4.8252 -17.69285,-7.21574 z m -25.3655,150.7093 -33.9799,-6.6005 -6.6486,34.2279 33.9797,6.6002 z"
				 id="path6" />
		</g>
		<g
			 style="fill:#ffb185;fill-opacity:1;stroke-linejoin:miter"
			 id="g12">
			<path
				 d="m 726.1983,953.0584 -1.20935,0.83534 q -9.82348,6.63306 -10.59035,11.29286 -1.2743,5.10924 1.3661,13.9408 -4.88463,12.5265 -3.90246,20.181 0.85696,4.8723 4.06311,8.9516 1.87671,2.9006 10.19395,10.5003 3.3416,7.375 5.75063,9.9104 2.79677,3.029 4.849,4.0676 10.94167,5.803 31.74201,1.5671 21.34446,-3.716 66.63061,-17.0791 l 8.04295,-63.373 -31.15074,-4.4635 -11.48156,-16.6604 q -24.4475,2.8305 -32.14685,1.2489 -3.99811,-0.6935 -7.01068,-2.0348 -13.25257,-7.0242 -12.86147,-6.40956 -5.7087,-1.88349 -8.2213,-1.7121 -6.911,-0.44177 -10.30395,5.96741 -2.73365,4.31765 -3.75965,23.26915"
				 id="path10" />
		</g>
		<g
			 style="fill:#ffffff;fill-opacity:1;stroke-linejoin:miter"
			 id="g16">
			<path
				 d="m 867.8911,957.51117 -21.26634,-3.07843 -21.26661,-3.07834 q -5.87485,40.5793 -11.74925,81.159 21.26647,3.0789 42.53295,6.158 5.87465,-40.58034 11.74925,-81.16023"
				 id="path14" />
		</g>
		<g
			 style="fill:#fccf5b;fill-opacity:1;stroke-linejoin:miter"
			 id="g20">
			<path
				 d="m 300.99057,891.1012 c -11.20929,-33.8621 -59.8979,-41.7236 -45.71375,-93.5054 9.57062,-34.9019 73.59354,-58.9761 99.92814,-6.8486 20.25879,40.0922 -11.75861,53.0947 -8.75489,91.4939 z"
				 id="path18" />
		</g>
		<g
			 style="fill:#231f20;fill-opacity:1;stroke-linejoin:miter"
			 id="g24">
			<path
				 d="m 350.59674,903.08545 c 0,0 5.68518,-7.19635 -1.8399,-9.57075 0,0 6.49736,-8.3334 -2.30677,-11.2736 l -10.65234,2.07866 c -1.28369,-12.35596 -1.97053,-24.80686 -3.27453,-37.13256 -0.81348,-7.63843 -1.76978,-15.2708 -2.64905,-22.90156 -0.85633,-7.53564 -1.14985,-15.3526 -3.23981,-22.66524 -1.09851,-3.8494 -2.22974,-8.9998 -6.41334,-10.5199 -2.841,-1.029 -4.48077,2.35055 -5.15795,4.44064 -0.93982,2.8966 -1.1908,6.07266 -1.33582,9.18542 -2.03131,-4.4245 -4.69463,-7.47259 -8.04803,-5.91556 -4.08844,1.8887 -4.1396,11.2171 -4.3155,14.753 -0.0159,0.29873 -0.0251,0.6064 -0.0465,0.9154 -0.7387,-1.7129 -1.55017,-3.4005 -2.4787,-5.0419 -2.09778,-3.69763 -4.3485,-8.81476 -8.9256,-9.6134 -7.02734,-1.2286 -5.73758,14.8107 -5.31924,18.07806 1.9696,15.25374 8.27167,30.37064 14.1802,44.4303 2.98017,7.08899 5.8993,14.22584 8.83637,21.33148 0.61145,1.48651 1.25201,3.62946 2.07104,5.742 l -8.6907,1.69526 c 0,0 -7.74225,5.28534 1.73473,11.5217 0,0 -7.17455,5.6314 1.60835,10.05953 0,0 -6.2287,6.21161 2.70135,8.88237 l 9.05106,-1.3759 8.70489,6.7654 11.87848,-1.8428 5.836,-9.4203 8.69953,-2.2084 c 0,0 8.96698,-6.6269 -0.60822,-10.39735 z M 313.4735,888.67096 c -1.01018,-2.07726 -1.73485,-4.44659 -2.57518,-6.479 -2.14454,-5.20026 -4.5622,-10.27179 -6.64002,-15.49906 -4.6084,-11.6043 -9.51923,-23.04605 -12.75952,-35.1421 -2.24548,-8.3855 -4.65094,-16.69765 -3.10328,-25.4137 0.83515,-4.7115 4.47816,0.4607 5.48005,2.0412 1.60235,2.5434 3.03039,5.0953 4.27039,7.82555 1.43493,3.15695 2.52026,6.46115 3.65186,9.74805 0.37346,1.85845 0.97124,3.6134 1.88683,5.157 0.011,0.0174 0.0155,0.0304 0.0193,0.0465 0.004,-9.4e-4 0.004,-0.002 0.0104,-0.003 0.0757,0.13663 0.15204,0.27203 0.23724,0.40123 1.15814,1.7772 3.77814,-0.0579 3.04626,-1.87523 -0.7879,-1.93512 -1.49749,-3.89977 -2.20251,-5.86371 -1.0517,-6.06036 0.0675,-13.84866 1.34325,-18.53803 1.5533,-5.70943 5.4507,5.45297 5.98494,6.97897 0.44336,1.25077 0.85236,2.56315 1.23791,3.89146 0.12385,2.9345 0.62555,5.80859 2.00317,7.96179 1.01118,1.57195 3.43928,0.24545 3.18195,-1.40955 -0.16449,-1.0783 -0.48761,-2.9952 -0.98309,-5.2919 0.016,-0.47745 0.0142,-0.96023 -0.0545,-1.44284 -0.45533,-3.0636 -0.42846,-6.00986 -0.26123,-9.08411 0.14948,-2.7052 0.35437,-5.4024 0.78345,-8.07495 0.60638,-3.7451 2.75543,-2.8757 3.82977,0.3463 0.98285,2.9599 1.96601,5.77333 2.52088,8.8566 1.00567,5.56377 1.35064,11.39976 1.93353,17.0277 1.21057,11.7365 2.57959,23.4721 4.03509,35.1839 1.03711,8.2807 1.38398,16.6304 2.06336,24.9576 z"
				 id="path22" />
		</g>
		<g
			 style="fill:#fde29d;fill-opacity:1;stroke-linejoin:miter"
			 id="g28">
			<path
				 d="m 262.41348,822.4208 c 0.87799,-4.0428 0.69458,-8.1922 1.29462,-12.2821 0.44836,-3.0708 1.3567,-5.91476 2.40546,-8.8241 1.11914,-3.1007 2.22326,-6.3665 3.51959,-9.3782 0.44598,-1.03424 -0.47022,-2.1342 -1.56647,-1.57556 -3.48388,1.7876 -5.29918,4.35476 -6.69758,7.99829 -1.14055,2.97877 -2.0955,5.98177 -2.6355,9.12707 -0.83824,4.9193 -0.90398,10.0397 0.13484,14.92524 0.3717,1.76076 3.16003,1.7677 3.54504,0.009 l 1.2e-4,5e-4 z"
				 id="path26" />
		</g>
		<g
			 style="fill:#fde29d;fill-opacity:1;stroke-linejoin:miter"
			 id="g32">
			<path
				 d="m 275.98923,781.0343 c -0.0402,-0.0165 -0.0737,-0.0349 -0.10498,-0.0604 0.16875,0.13232 0.33728,0.26386 0.50885,0.39673 -0.76294,-0.6626 -1.81763,-1.32827 -2.88227,-0.89477 0.43061,8.5e-4 0.86902,0.004 1.30072,0.004 -0.0239,-0.004 -0.0484,-0.01 -0.0787,-0.0164 -0.85065,-0.19019 -1.71014,-0.0162 -2.3418,0.61196 -0.59643,0.5966 -0.87268,1.52177 -0.62445,2.3407 0.008,0.0236 0.0129,0.0474 0.0198,0.0738 0.002,-0.43485 9.2e-4,-0.8708 0.003,-1.30484 -0.29493,0.96904 0.0654,2.01648 0.78893,2.69164 0.76953,0.72065 1.80359,0.9444 2.80591,0.687 0.83191,-0.2112 1.50543,-0.90495 1.73663,-1.72526 0.279,-1.00034 -0.13891,-2.3316 -1.13134,-2.80414 z"
				 id="path30" />
		</g>
		<g
			 style="fill:#fde29d;fill-opacity:1;stroke-linejoin:miter"
			 id="g36">
			<path
				 d="m 348.71625,839.82306 c 2.0498,0.41754 3.10913,-2.1695 3.67871,-3.66656 0.88524,-2.3156 1.52684,-4.75654 2.24939,-7.12684 0.62262,-2.04821 1.33642,-4.23396 1.41803,-6.38409 0.0651,-1.55837 -0.56452,-4.48053 -2.52088,-4.69267 -1.58026,-0.1746 -2.3739,2.3124 -2.68695,3.43675 -0.64209,2.29095 -1.00555,4.64178 -1.68335,6.935 -0.64618,2.19439 -1.22406,4.40695 -1.70398,6.6441 -0.341,1.57642 -1.00402,4.39735 1.24903,4.85431 l 1.2e-4,7.4e-4 z"
				 id="path34" />
		</g>
		<g
			 style="fill:#fccf5b;fill-opacity:1;stroke-linejoin:miter"
			 id="g40">
			<path
				 d="m 359.9254,761.2129 c 2.1595,-1.6487 4.2732,-4.217 5.87196,-6.4 2.84339,-3.87424 4.79218,-8.1671 6.33826,-12.659 0.37866,-1.10904 -0.97247,-2.4979 -2.06042,-1.73843 -4.31934,3.02203 -7.34534,6.11563 -9.76746,10.87553 -1.32434,2.6126 -4.92284,5.5596 -3.72406,8.8652 0.53894,1.4917 2.02405,2.0563 3.34172,1.0567 l 1.4e-4,6e-4 z"
				 id="path38" />
		</g>
		<g
			 style="fill:#fccf5b;fill-opacity:1;stroke-linejoin:miter"
			 id="g44">
			<path
				 d="m 245.78255,784.5906 c -1.03482,-3.9517 -5.04822,-6.111 -8.02435,-8.54574 -1.49814,-1.23066 -3.12116,-2.30806 -4.64832,-3.49416 -1.6933,-1.3099 -3.22382,-2.78855 -5.12998,-3.7699 -1.38717,-0.7132 -3.74581,-0.092 -3.62265,1.85287 0.27839,4.54828 4.12433,6.99743 7.56922,9.35293 3.58298,2.4484 7.28326,5.5258 11.50326,6.7342 1.27311,0.3611 2.72351,-0.7363 2.35282,-2.1302 z"
				 id="path42" />
		</g>
		<g
			 style="fill:#fccf5b;fill-opacity:1;stroke-linejoin:miter"
			 id="g48">
			<path
				 d="m 240.24785,744.9798 c 0.27832,4.17627 3.3475,7.54455 5.88617,10.6547 2.94378,3.61025 6.2866,6.4018 10.10545,9.02675 0.98145,0.67355 2.37207,-0.29945 2.08246,-1.44675 -1.05878,-4.2483 -3.20343,-7.5627 -6.05243,-10.8328 -2.60889,-2.9905 -5.231,-6.96983 -8.54036,-9.18517 -1.29318,-0.86706 -3.59726,0.0499 -3.48129,1.78327 z"
				 id="path46" />
		</g>
		<g
			 style="fill:#fccf5b;fill-opacity:1;stroke-linejoin:miter"
			 id="g52">
			<path
				 d="m 319.9156,745.4576 c 0.96294,-1.3983 1.30132,-3.4682 1.6823,-5.09584 0.56787,-2.42616 1.02063,-4.82392 1.38336,-7.28866 0.38996,-2.6821 0.82314,-5.35813 1.07334,-8.0592 0.24334,-2.63835 0.82476,-5.6273 0.0203,-8.21403 -0.21869,-0.69967 -1.00909,-1.00917 -1.59699,-0.50592 -1.89324,1.63092 -3.04943,4.47052 -3.72577,6.82615 -0.90203,3.1803 -1.60638,6.3287 -1.97567,9.61946 -0.38196,3.39917 -2.21723,10.90967 1.5863,13.05628 0.54957,0.30546 1.19092,0.18566 1.55287,-0.33824 v 2e-4 z"
				 id="path50" />
		</g>
		<g
			 style="fill:#fccf5b;fill-opacity:1;stroke-linejoin:miter"
			 id="g56">
			<path
				 d="m 341.80542,749.2653 c -0.45599,0.7201 0.36835,-0.62895 0.37482,-0.6753 0.0428,-0.2293 0.1123,-0.44455 0.18774,-0.6651 0.27124,-0.74106 0.53858,-1.47544 0.84314,-2.2462 0.80218,-2.05376 1.74188,-4.0555 2.68598,-6.0482 1.83288,-3.8511 4.12194,-7.6677 4.74206,-11.7677 0.32794,-2.1543 -2.36376,-2.8069 -3.74701,-1.7645 -3.62653,2.72867 -5.78717,7.96414 -7.43395,12.27096 -0.8689,2.28164 -4.00074,10.74939 0.41247,11.58824 0.75219,0.14125 1.49261,0.005 1.93475,-0.6922 z"
				 id="path54" />
		</g>
		<g
			 style="fill:#fccf5b;fill-opacity:1;stroke-linejoin:miter"
			 id="g60">
			<path
				 d="m 298.2444,743.5074 c 1.1229,-1.5463 0.91856,-3.9829 1.04442,-5.807 0.19903,-3.0115 -0.21732,-6.08614 -0.52884,-9.0811 -0.32568,-3.14555 -1.09241,-6.25144 -1.98938,-9.278 -0.76605,-2.6259 -1.78565,-5.5798 -3.86945,-7.44976 -0.59465,-0.53704 -1.40167,-0.36644 -1.72332,0.37622 -1.11493,2.62124 -0.59503,5.60824 -0.21393,8.34394 0.4364,3.1259 1.13727,6.23034 1.68988,9.3403 0.53467,3.0139 0.92904,6.0455 1.45425,9.06314 0.32355,1.88296 0.9151,4.15612 2.81537,4.96526 0.4912,0.2067 1.0357,-0.0807 1.321,-0.473 z"
				 id="path58" />
		</g>
		<g
			 style="fill:#fccf5b;fill-opacity:1;stroke-linejoin:miter"
			 id="g64">
			<path
				 d="m 276.51575,751.6082 c 0.008,0.0824 0.01,0.16585 0.0182,0.2509 0.0458,0.5211 0.71057,0.46725 0.96106,0.1707 2.41772,-2.9022 -1.40503,-8.5187 -2.74298,-11.13 -1.89982,-3.6977 -4.22794,-9.30526 -8.1811,-11.22054 -0.85588,-0.41176 -1.9776,-0.0418 -2.02795,1.04324 -0.21625,4.749 2.05823,9.2497 4.45761,13.20145 1.42126,2.33055 4.69216,9.11652 8.16141,8.33635 -0.0756,-0.344 -0.14581,-0.6882 -0.22089,-1.02727 -0.0826,0.0295 -0.16022,0.0599 -0.23516,0.0864 -0.1421,0.0507 -0.20124,0.1404 -0.19025,0.2888 z"
				 id="path62" />
		</g>
		<g
			 style="fill:#ffb185;fill-opacity:1;stroke-linejoin:miter"
			 id="g68">
			<path
				 d="m 376.54016,934.9507 1.26059,0.7553 q 10.23075,5.98596 11.29635,10.5866 1.60108,5.01654 -0.4641,13.9997 5.682,12.18536 5.19543,19.88763 -0.5408,4.91724 -3.47736,9.19477 -1.6856,3.0156 -9.49545,11.1354 -2.85907,7.5756 -5.09946,10.2609 -2.59576,3.2031 -4.57678,4.3721 -10.54468,6.4961 -31.5747,3.6103 -21.53934,-2.3319 -67.59296,-12.7464 l -12.11276,-62.723 30.79814,-6.46283 10.3835,-17.36652 q 24.57882,1.24885 32.16006,-0.82599 3.94501,-0.94956 6.86494,-2.4826 12.77178,-7.86406 12.42113,-7.22571 5.57537,-2.24799 8.09369,-2.23865 6.86828,-0.88653 10.66712,5.29035 3.00659,4.1325 5.25262,22.97865"
				 id="path66" />
		</g>
		<g
			 style="fill:#ffffff;fill-opacity:1;stroke-linejoin:miter"
			 id="g72">
			<path
				 d="m 235.43001,948.53094 21.02357,-4.44364 21.02392,-4.44295 q 8.479,40.1159 16.9582,80.23215 -21.0237,4.4441 -42.0473,8.8879 -8.4793,-40.11694 -16.95839,-80.23346"
				 id="path70" />
		</g>
		<g
			 style="fill:#000000;fill-opacity:1;stroke-linejoin:miter"
			 id="g76">
			<path
				 d="m 435.10284,1113.7019 v 4e-4 l -1.4e-4,3e-4 z"
				 id="path74" />
		</g>
		<g
			 style="fill:#677678;fill-opacity:0.996078;stroke-linejoin:miter"
			 id="g80">
			<path
				 d="m 988.3374,1290.6029 0.0352,0.014 6.19704,6.2734 h 3.5e-4 l 5.53731,5.6659 -0.035,0.083 -126.70866,-0.9064 h -10e-4 l -127.4919,-0.9845 -0.0468,-0.035 -1.22204,-4.4782 v 8e-4 l -10e-4,-0.01 c -0.6174,-2.1834 -0.96494,-4.006 -1.0006,-4.6996 l 0.006,6e-4 0.0262,0.03 0.007,-0.091 c 3.2958,-0.2429 31.96356,-0.4055 66.4235,-0.5302 l 0.005,7e-4 h 4.9e-4 l 4.61572,-0.01 h 1.04734 1.0635 c 36.41394,-0.062 86.64136,-0.1472 115.74524,-0.2385 l 0.004,4e-4 h 3.6e-4 z"
				 id="path78" />
		</g>
		<g
			 style="fill:#677678;fill-opacity:0.996078;stroke-linejoin:miter"
			 id="g84">
			<path
				 d="m 665.05646,1289.552 h 0.002 c 0.59997,0.021 1.90017,0.073 3.92677,0.1547 l 10e-4,-8e-4 7.77613,0.3151 14.99584,0.6064 h 10e-4 c 13.49466,0.5427 24.7061,1.0709 26.35403,1.2505 l -0.006,0.1007 0.006,10e-4 c 0.002,0 0.002,0 0.004,0.01 v 10e-4 l 0.046,-0.069 c 0.244,0.5917 0.87766,2.5013 1.5305,4.7485 v 4e-4 l 1.2118,4.2136 -0.0663,0.087 -56.1489,-0.3381 -0.0677,-0.069 0.0335,-5.547 c 0.0164,-2.6586 0.16833,-4.7254 0.3259,-5.4105 l 0.0673,-0.053 z"
				 id="path82" />
		</g>
		<g
			 style="fill:#000000;fill-opacity:0.996078;stroke-linejoin:miter"
			 id="g88">
			<path
				 d="m 948.7073,1294.1447 h -1.5e-4 l 3.5e-4,-10e-4 z"
				 id="path86" />
		</g>
		<g
			 style="fill:#ffffff;fill-opacity:0.996078;stroke-linejoin:miter"
			 id="g92">
			<path
				 d="m 1131.8962,1251.7905 v 4e-4 q 0,0 0,-4e-4 z"
				 id="path90" />
		</g>
		<g
			 style="fill:#ffffff;fill-opacity:1;stroke-linejoin:miter"
			 id="g96">
			<path
				 d="m 992.5293,1367.4901 v 10e-4 z"
				 id="path94" />
		</g>
		<g
			 style="fill:#3c464f;fill-opacity:0.996078;stroke-linejoin:miter"
			 id="g100">
			<path
				 d="m 1097.8542,865.477 v 3.6e-4 0.002 -0.002 -3.6e-4 3.6e-4 0.002 q 0,-0.002 0,-0.002 z"
				 id="path98" />
		</g>
		<g
			 style="fill:#3c464f;fill-opacity:0.996078;stroke-linejoin:miter"
			 id="g104">
			<path
				 d="m 1087.1514,852.7404 v 9e-4 -6.4e-4 -2.6e-4 9e-4 -9e-4 2.6e-4 q 0,-2.6e-4 0,-2.6e-4 z"
				 id="path102" />
		</g>
		<g
			 style="fill:#222b32;fill-opacity:1;stroke-linejoin:miter"
			 id="g108">
			<path
				 d="m 1093.178,865.20966 v 0.002 -0.001 -8.4e-4 0.002 z M 664.66364,1289.5972 c 0.0372,0.01 0.0703,0.012 0.10046,0.012 l 7.3e-4,10e-4 -0.0948,-0.013 z m 78.70346,1.9525 c -0.0176,0 -0.0251,0.01 -0.0251,0.01 l 0.003,10e-4 c 0.005,-10e-4 0.0145,0 0.028,-0.01 z m -25.08396,0.4208 c 0.008,0 0.0142,0 0.0171,0 l 0.002,3e-4 c 0,-10e-4 -0.004,0 -0.0126,0 z m 270.05426,-1.319 -55.79284,0.085 9.7e-4,8e-4 c -29.68823,0.092 -81.27673,0.1797 -117.86123,0.2423 l -4.6158,0.01 h 6e-4 c -34.4673,0.1244 -63.12995,0.2866 -66.4267,0.5303 h 0.006 c 0.0334,0.6822 0.37989,2.5054 0.99952,4.6954 h 0.002 l 1.2218,4.4794 127.49285,0.9843 v 6e-4 l 126.70893,0.9083 -5.53813,-5.668 z m -323.28814,-1.0313 c -0.15526,0.6768 -0.30776,2.7365 -0.32376,5.3954 l -0.0335,5.547 56.14804,0.3391 -1.21115,-4.2144 c -0.65355,-2.2471 -1.28725,-4.158 -1.5282,-4.7431 l 0.006,4e-4 c -1.64565,-0.1782 -12.8516,-0.7064 -26.3495,-1.2488 v 2e-4 l -14.9967,-0.6064 -7.7764,-0.3143 v 7e-4 c -1.9914,-0.081 -3.36423,-0.1348 -3.92746,-0.1554 z m 429.84284,63.9672 v 4e-4 -4e-4 l -0.01,4e-4 z m -6.0401,-488.47455 c 0,-2.5e-4 0.01,-2.5e-4 0.01,0 l 4.3225,0.0968 v 8.4e-4 l 0.01,-8.4e-4 c 2.3554,0.0858 9.8613,0.55624 16.6675,1.09474 l 2e-4,8.4e-4 0.034,8.6e-4 v 10e-4 l 0.034,0.002 v 5e-4 c 12.3797,0.9237 12.5352,0.9488 38.0357,8.10825 v 6.1e-4 c 23.3354,6.45264 26.0796,7.21764 25.6606,9.14917 l -0.01,0.0265 5e-4,10e-4 c -0.3872,1.8214 -16.8659,101.4153 -36.7751,222.27848 l -7.4346,45.1509 -5.729,34.7964 c -25.2117,153.1074 -27.398,166.252 -28.1907,167.4526 v 4e-4 c -0.1455,0.2202 -0.3347,0.3011 -0.5173,0.3121 v 4e-4 c -0.1502,0.1682 -0.385,0.8625 -0.3911,1.8684 l -0.013,2.0563 c -5e-4,0.1281 -0.052,0.2484 -0.1419,0.3372 -0.09,0.09 -0.2126,0.1389 -0.3393,0.1386 l -471.0992,-2.8559 c -0.2584,0 -0.46936,-0.2088 -0.475,-0.4676 l -0.3343,-15.0248 c -0.23367,-8.2286 -0.3468,-24.6835 -0.27554,-36.5198 l 0.13014,-21.4738 c 0.002,-0.2641 0.2173,-0.4763 0.48155,-0.4756 l 394.28985,2.3879 0.017,-2.7822 0.019,-3.2599 c 0,-0.1744 0.097,-0.335 0.2517,-0.4181 0.072,-0.039 0.1506,-0.058 0.2293,-0.058 0.09,4e-4 0.1797,0.027 0.2576,0.078 l 1.7649,1.1444 0.013,0.01 c 0.502,0.349 0.8428,0.5081 1.0359,0.565 v 0 c 0.7759,-6.1414 28.4107,-173.1687 29.1219,-176.0606 h -8e-4 c 0,0 0.021,-0.094 0.079,-0.1822 l -10e-4,3e-4 c 0.1277,-0.1892 0.3469,-0.2264 0.3589,-0.2281 l -3e-4,7e-4 c 0.1895,-0.043 0.5454,-0.052 0.9676,-0.049 1.9277,0.012 6.5674,0.2974 11.8608,0.7113 v 0 c 5.0654,0.3553 8.1303,0.5479 10.1133,0.5596 2.3383,0.014 3.071,-0.2261 3.7614,-0.6813 l 0.011,-0.01 c 1.719,-1.068 2.5249,-3.3808 1.887,-5.4657 h -7e-4 c -0.6434,-2.1496 -3.656,-3.0752 -15.6995,-3.7258 l 7e-4,7e-4 c -6.5317,-0.2936 -10.5168,-0.7368 -11.2885,-1.3016 v 7e-4 c -0.099,-0.073 -0.2891,-0.2425 -0.2874,-0.5234 5e-4,-0.026 0,-0.052 0,-0.056 l -2e-4,-7e-4 c 0.1015,-1.0348 8.3879,-51.9505 18.552,-113.59185 v 7.4e-4 l 18.5447,-112.724 c 0.038,-0.23277 0.2397,-0.4021 0.475,-0.40052 z"
				 id="path106" />
		</g>
		<g
			 style="fill:#222b32;fill-opacity:0.996078;stroke-linejoin:miter"
			 id="g112">
			<path
				 d="m 1064.5369,1057.672 -5.4219,-0.4076 -5.4221,-0.4083 q -2.5125,33.3773 -5.0257,66.7539 5.4222,0.4084 10.844,0.8174 2.513,-33.3774 5.0257,-66.7554 z"
				 id="path110" />
		</g>
		<g
			 style="fill:#44c5e5;fill-opacity:0.996078;stroke-linejoin:miter"
			 id="g116">
			<path
				 d="m 1145.157,895.1674 -26.4165,-8.27586 -26.416,-8.27588 -62.1148,393.05644 q 22.7151,22.5808 45.4304,45.1615 z"
				 id="path114" />
		</g>
		<g
			 style="fill:#677678;fill-opacity:0.996078;stroke-linejoin:miter"
			 id="g120">
			<path
				 d="m 119.08439,1290.6023 -0.0345,0.015 -6.19748,6.2727 h -2.6e-4 l -5.53769,5.6655 0.0354,0.083 126.70842,-0.9062 h 0.001 l 127.49217,-0.9841 0.0464,-0.036 1.2222,-4.4782 v 8e-4 l 0.001,-0.01 c 0.61743,-2.183 0.96539,-4.006 1.00079,-4.7 l -0.006,10e-4 -0.0262,0.031 -0.007,-0.091 c -3.29607,-0.2435 -31.96371,-0.4058 -66.42361,-0.5299 l -0.005,6e-4 h -3.5e-4 l -4.61605,-0.01 h -1.0473 -1.06355 c -36.4136,-0.062 -86.64145,-0.1469 -115.74485,-0.2378 l -0.004,4e-4 h -8.6e-4 z"
				 id="path118" />
		</g>
		<g
			 style="fill:#677678;fill-opacity:0.996078;stroke-linejoin:miter"
			 id="g124">
			<path
				 d="m 442.36523,1289.552 h -0.002 c -0.60003,0.021 -1.89978,0.072 -3.92685,0.1545 h -10e-4 l -7.77615,0.3153 -14.99552,0.6068 -10e-4,-7e-4 c -13.49478,0.5425 -24.70657,1.0703 -26.35425,1.2499 l 0.006,0.1007 -0.006,2e-4 c -0.001,0 -0.002,0.01 -0.004,0.01 v 6e-4 l -0.0457,-0.068 c -0.24408,0.5917 -0.87753,2.5019 -1.53053,4.7487 v 0 l -1.21168,4.2116 0.0662,0.088 56.14874,-0.3384 0.068,-0.069 -0.0335,-5.547 c -0.0163,-2.6586 -0.16843,-4.7254 -0.32623,-5.4101 l -0.0671,-0.053 z"
				 id="path122" />
		</g>
		<g
			 style="fill:#000000;fill-opacity:0.996078;stroke-linejoin:miter"
			 id="g128">
			<path
				 d="m 158.7147,1294.1448 h 1e-4 l -3.5e-4,-10e-4 z"
				 id="path126" />
		</g>
		<g
			 style="fill:#ffffff;fill-opacity:0.996078;stroke-linejoin:miter"
			 id="g132">
			<path
				 d="m 79.62782,1229.2323 9e-5,4e-4 q 0,7e-4 -9e-5,-4e-4 z"
				 id="path130" />
		</g>
		<g
			 style="fill:#ffffff;fill-opacity:1;stroke-linejoin:miter"
			 id="g136">
			<path
				 d="m 114.89255,1367.4896 v 6e-4 z"
				 id="path134" />
		</g>
		<g
			 style="fill:#3c464f;fill-opacity:0.996078;stroke-linejoin:miter"
			 id="g140">
			<path
				 d="m 9.568763,865.4765 v 6e-4 2.6e-4 -2.6e-4 -6e-4 6e-4 2.6e-4 q 0,-2.6e-4 0,-8.6e-4 z"
				 id="path138" />
		</g>
		<g
			 style="fill:#3c464f;fill-opacity:0.996078;stroke-linejoin:miter"
			 id="g144">
			<path
				 d="m 20.272219,852.74054 v 0.002 l 1.71e-4,-10e-4 -1.71e-4,-6.1e-4 v 0.002 -0.002 l 1.71e-4,6.1e-4 q -1.71e-4,-6.1e-4 -1.71e-4,-6.1e-4 z"
				 id="path142" />
		</g>
		<g
			 style="fill:#222b32;fill-opacity:1;stroke-linejoin:miter"
			 id="g148">
			<path
				 d="m 14.244782,865.20905 -0.0041,4.8e-4 v 10e-4 -10e-4 z M 442.7586,1289.5968 c -0.0373,0.01 -0.0707,0.013 -0.1008,0.013 l -8.5e-4,10e-4 0.0949,-0.014 z m -78.70388,1.9525 c 0.0177,0 0.0254,0.01 0.0254,0.01 l -0.003,6e-4 c -0.005,-10e-4 -0.0148,0 -0.0279,-0.01 z m 25.0838,0.4212 c -0.008,0 -0.0138,0 -0.0167,0 l -0.002,7e-4 c 0,-7e-4 0.004,0 0.0124,0 z m -270.05413,-1.3193 55.7927,0.086 -6.1e-4,8e-4 c 29.68812,0.092 81.27682,0.1802 117.86125,0.2422 l 4.61603,0.01 -8.6e-4,2e-4 c 34.46723,0.1259 63.1299,0.2879 66.42646,0.5314 h -0.006 c -0.0329,0.6826 -0.37958,2.5058 -0.99934,4.6965 h -0.001 l -1.22202,4.4786 -127.49313,0.9843 5.9e-4,6e-4 -126.70894,0.9073 5.53769,-5.6672 z m 323.28826,-1.0306 c 0.15533,0.6768 0.30789,2.7361 0.3241,5.395 l 0.0333,5.547 -56.1484,0.3391 1.2116,-4.2144 c 0.65336,-2.2469 1.287,-4.158 1.5283,-4.7431 l -0.006,8e-4 c 1.64545,-0.1786 12.8519,-0.7065 26.34967,-1.2492 v 2e-4 l 14.99698,-0.6064 7.776,-0.314 v 4e-4 c 1.99142,-0.081 3.36415,-0.1348 3.92755,-0.1554 z m -429.843075,63.9662 -0.0025,7e-4 -0.0028,-7e-4 0.0053,7e-4 z m 6.041796,-488.47456 c -0.0026,0 -0.0052,0 -0.0079,4.9e-4 l -4.322798,0.0968 v 10e-4 l -0.0083,-10e-4 c -2.3555,0.0861 -9.8617796,0.55677 -16.6680018,1.09461 v 3.6e-4 l -0.033432,0.002 v 10e-4 l -0.034287,0.002 1.755e-4,6e-4 c -12.3800887,0.9227 -12.5352477,0.9486 -38.0357917,8.1079 v 7.4e-4 c -23.33501,6.45276 -26.07903,7.21776 -25.66008,9.14941 l 0.0067,0.0262 -5.2e-4,7e-4 c 0.38759,1.82166 16.86546,101.41554 36.774492,222.27845 l 7.434343,45.1513 5.729277,34.7966 c 25.2113465,153.1063 27.397128,166.2517 28.190227,167.4526 v 8e-4 c 0.145592,0.2198 0.334687,0.3 0.517495,0.3117 l -0.0027,4e-4 c 0.150329,0.1678 0.385345,0.8618 0.391204,1.8684 l 0.01267,2.0563 c 7.78e-4,0.1274 0.05195,0.2484 0.142143,0.3373 0.0902,0.089 0.212105,0.1389 0.338997,0.1379 l 471.099476,-2.8554 c 0.25862,0 0.46934,-0.2088 0.4752,-0.4676 l 0.33445,-15.0242 c 0.23327,-8.2292 0.34649,-24.6838 0.27515,-36.5204 l -0.13007,-21.4732 c -0.002,-0.2647 -0.21729,-0.4769 -0.4816,-0.4762 l -394.289769,2.388 -0.01671,-2.7822 -0.01981,-3.2599 c -0.001,-0.1744 -0.09744,-0.3346 -0.25113,-0.4181 -0.07193,-0.039 -0.151015,-0.058 -0.229935,-0.058 -0.08985,4e-4 -0.17936,0.027 -0.257415,0.078 l -1.764945,1.1444 -0.01301,0.01 c -0.50173,0.3488 -0.84245,0.508 -1.03577,0.5648 h 9e-5 C 86.25331,1272.696 58.61918,1105.6683 57.907845,1102.7761 l 9.45e-4,8e-4 c 0.0021,-8e-4 -0.02102,-0.093 -0.0796,-0.1817 l 0.0014,8e-4 c -0.127836,-0.19 -0.347351,-0.2265 -0.359413,-0.2282 l 8.4e-5,4e-4 c -0.189094,-0.043 -0.544797,-0.051 -0.966847,-0.049 -1.92785,0.012 -6.56733,0.2968 -11.86129,0.711 l -0.0012,9e-4 c -5.06532,0.355 -8.130686,0.548 -10.11333,0.5597 -2.338695,0.014 -3.071224,-0.2261 -3.761707,-0.6806 l -0.01068,-0.01 c -1.718682,-1.0676 -2.524437,-3.3808 -1.886672,-5.4657 h 7.77e-4 c 0.642846,-2.15 3.656263,-3.0759 15.699681,-3.7262 l -10e-4,4e-4 c 6.531756,-0.2928 10.516682,-0.7364 11.28857,-1.3009 l 8.6e-5,4e-4 c 0.09873,-0.073 0.28912,-0.2426 0.287398,-0.5231 -1.76e-4,-0.027 -0.0027,-0.052 -0.0032,-0.057 l 1.66e-4,-4e-4 C 56.0401,1090.7929 47.754089,1039.8769 37.589844,978.23525 v 9.5e-4 L 19.04614,865.5131 c -0.03834,-0.23277 -0.239925,-0.40244 -0.474769,-0.40086 z"
				 id="path146" />
		</g>
		<g
			 style="fill:#222b32;fill-opacity:0.996078;stroke-linejoin:miter"
			 id="g152">
			<path
				 d="m 42.885303,1057.6715 5.421727,-0.4077 5.422065,-0.408 q 2.512625,33.3774 5.025689,66.7543 -5.421887,0.4077 -10.843781,0.8174 -2.513069,-33.3777 -5.0257,-66.756 z"
				 id="path150" />
		</g>
		<g
			 style="fill:#44c5e5;fill-opacity:0.996078;stroke-linejoin:miter"
			 id="g156">
			<path
				 d="m -37.733852,895.16754 26.416139,-8.27624 26.415972,-8.2759 62.113681,393.0568 q -22.715156,22.5812 -45.430324,45.1602 z"
				 id="path154" />
		</g>
		<g
			 style="fill:#000000;fill-opacity:0.192157;stroke-linejoin:miter"
			 id="g160">
			<path
				 d="m 1229.2046,1345.131 -6.0813,5.047 q -43.2334,15.2535 -253.0026,24.3988 -211.2212,9.1378 -497.4537,7.4107 -273.17194,-2.4143 -436.95344,-14.1278 -52.477425,-3.7861 -86.450678,-8.2511 l -28.553676,-4.5893 q -23.530826,-4.7389 -23.795316,-9.8882 7.14327,-15.8064 195.109364,-26.3025 187.966246,-10.4953 471.035646,-10.8937 283.0699,0.3984 471.0361,10.8936 187.9663,10.4965 195.1096,26.3025 z"
				 id="path158" />
		</g>
		<g
			 style="fill:#000000;fill-opacity:1;stroke-linejoin:miter"
			 id="g164">
			<path
				 d="m 850.66907,950.0894 134.78183,17.4069 134.7815,17.4066 q -5.9978,46.4379 -11.9944,92.8751 -134.7817,-17.4057 -269.56344,-34.8116 5.99694,-46.4385 11.99451,-92.877 z"
				 id="path162" />
		</g>
		<g
			 style="fill:#000000;fill-opacity:1;stroke-linejoin:miter"
			 id="g168">
			<path
				 d="m -11.426682,1015.8325 261.715532,-73.3559 25.27438,90.1704 -261.714899,73.358 z"
				 id="path166" />
		</g>
		<g
			 style="fill:#fffefe;fill-opacity:1;stroke-linejoin:miter"
			 id="g172">
			<path
				 d="m 851.45215,1089.7001 -2.5e-4,7e-4 v 2e-4 z"
				 id="path170" />
		</g>
	</g>
</svg>
