<?xml version="1.0" encoding="UTF-8" standalone="no"?>
<svg
	 version="1.1"
	 width="877.4826"
	 height="445.03488"
	 viewBox="-177 328 877.4826 445.03488"
	 id="svg914"
	 xmlns="http://www.w3.org/2000/svg"
	 xmlns:svg="http://www.w3.org/2000/svg">
	<defs
		 id="defs918">
		<clipPath
			 clipPathUnits="userSpaceOnUse"
			 id="clipPath4742">
			<rect
				 style="fill:#76b8bc;fill-opacity:1"
				 id="rect4744"
				 width="1077.2649"
				 height="770.01239"
				 x="-70.402191"
				 y="578.81836" />
		</clipPath>
	</defs>
	<g
		 id="layer1"
		 clip-path="url(#clipPath4742)"
		 transform="translate(-107.23519,-253.46074)">
		<g
			 style="fill:#76b8bc;fill-opacity:1;stroke-linejoin:miter"
			 id="g463" />
		<g
			 style="fill:#000000;fill-opacity:0.34902;stroke-linejoin:miter"
			 id="g467">
			<path
				 d="m 807.7178,992.8879 -4.00515,4.56834 q -28.47495,13.80596 -166.63471,22.08336 -139.11566,8.2708 -327.63641,6.7075 -179.91831,-2.1851 -287.789202,-12.7868 -34.56301,-3.427 -56.93872,-7.4684 l -18.806168,-4.1545 q -15.498,-4.2882 -15.67225,-8.94995 4.70474,-14.30615 128.504194,-23.80591 123.799516,-9.49964 310.236786,-9.86059 186.43747,0.36105 310.23709,9.8609 123.7998,9.49985 128.50454,23.80605"
				 id="path2808" />
		</g>
		<g
			 style="fill:#000000;fill-opacity:1;stroke-linejoin:miter"
			 id="g471">
			<path
				 d="m 71.16211,582.9462 q -9.29047,-2.9557 -19.04575,-0.0303 -8.936577,2.8136 -13.412266,10.22931 -5.041931,8.11674 -4.736954,27.92859 l 9.13231,8.87965 43.34883,-15.4597 Q 90.19916,604.1574 86.088,596.4846 80.84591,586.2663 71.17622,582.951"
				 id="path2805" />
		</g>
		<g
			 style="fill:#000000;fill-opacity:1;stroke-linejoin:miter"
			 id="g475">
			<path
				 d="m 185.79663,969.17004 -5.62146,18.38516 q -5.47789,5.17734 -6.19246,8.98276 -1.11972,5.91924 4.21518,13.11994 4.08401,5.2011 9.04077,6.6954 1.58721,0.4964 3.9848,0.7367 14.00939,0.1917 16.08634,1.043 1.46355,-0.065 16.6667,5.7475 2.72043,0.8906 5.27756,1.3977 10.98504,2.2585 21.74342,-6.4028 10.28632,-9.281 5.06342,-17.0934 -1.63808,-2.0617 -4.05266,-3.0571 -1.40019,-0.5682 -2.62144,-0.8685 -7.21421,-1.4878 -8.65535,-1.9668 -3.28302,-1.0865 -5.12409,-2.65144 -4.90626,-4.08546 -7.99969,-15.44286 l -41.655,-8.593"
				 id="path2802" />
		</g>
		<g
			 style="fill:#000000;fill-opacity:1;stroke-linejoin:miter"
			 id="g479">
			<path
				 d="m 227.32745,972.7793 q -0.60649,0.8613 -5.6e-4,0.006 m -0.32709,0.4777 -9.14824,13.3612 q -3.79426,-2.29336 -4.61699,-0.76955 -0.9757,1.08225 0.18897,7.22275 l 4.39626,-6.40696 0.0799,0.0374 q 2.16747,1.3998 6.12223,4.77405 17.75462,15.79431 18.54385,16.24881 4.35237,3.5896 7.03357,4.9341 4.24425,2.283 7.08072,-0.3881 8.00246,-8.448 9.95824,-11.0649 2.91293,-3.69653 3.54742,-6.1333 1.27854,-4.07036 -4.99603,-7.15216 -2.70511,-1.39184 -8.55106,-3.417 -2.21177,-0.83336 -20.18155,-6.57335 -3.28457,-1.08495 -5.04358,-1.75879 -4.89774,-1.84866 -4.42701,-2.86376"
				 id="path2799" />
		</g>
		<g
			 style="fill:#000000;fill-opacity:1;stroke-linejoin:miter"
			 id="g483">
			<path
				 d="m 99.05727,882.0697 -10.51807,3.48267 -0.44586,9.70929 0.0091,0.0151 11.5063,0.27577 -0.5512,-13.47566"
				 id="path2796" />
		</g>
		<g
			 style="fill:#000000;fill-opacity:1;stroke-linejoin:miter"
			 id="g487">
			<path
				 d="m 182.47542,958.0487 -191.293906,14.61756 1.767564,31.91564 117.707702,7.4169 69.70754,-21.1569 2.10994,-32.7733"
				 id="path2793" />
		</g>
		<g
			 style="fill:#000000;fill-opacity:1;stroke-linejoin:miter"
			 id="g491">
			<path
				 d="m 86.32905,950.1117 -60.811994,5.77233 -34.903655,16.98167 121.294439,7.9644 84.87332,-19.02065 -53.34601,-9.31275 -57.01316,-2.3811"
				 id="path2790" />
		</g>
		<g
			 style="fill:#000000;fill-opacity:1;stroke-linejoin:miter"
			 id="g495">
			<path
				 d="M 0.97172993,792.26556 Q -6.325359,840.9038 4.9327316,856.5629 q 4.4000804,6.2773 13.6357234,9.85476 4.648391,2.28404 27.228585,5.9372 3.303348,0.77667 5.912177,2.01129 3.019783,0.88519 12.711053,9.63815 2.28611,1.5852 4.20161,2.29654 6.372055,2.78913 23.48913,0.99481 59.32037,-8.58015 115.04159,-14.99011 L 1.1025634,792.316"
				 id="path2787" />
		</g>
		<g
			 style="fill:#ffbe80;fill-opacity:1;stroke-linejoin:miter"
			 id="g499">
			<path
				 d="m 130.17708,739.8263 -24.49104,7.87115 q 10.41073,35.87745 17.13541,44.66625 5.97269,8.7751 13.48681,5.5733 8.31085,-4.26555 10.38551,-16.2254 2.3665,-15.4091 -16.47427,-41.82494"
				 id="path2784" />
		</g>
		<g
			 style="fill:#ffffff;fill-opacity:1;stroke-linejoin:miter"
			 id="g503">
			<path
				 d="m 26.131441,661.6442 -1.742748,7.29043 -33.665153,18.83247 q -12.62136,27.75963 -11.744126,42.2948 -0.06422,6.55266 1.698926,18.73156 l 42.561212,-2.49512 q -7.799869,48.35546 -6.702569,63.66236 0.487883,20.5294 9.839888,37.50994 l 97.290129,-56.46649 -9.64066,-43.75395 20.128,-5.0099 q -7.55092,-28.7628 -19.32532,-49.56653 L 78.7483,675.02 77.77599,666.1992 26.392235,661.6673"
				 id="path2781" />
		</g>
		<g
			 style="fill:#46748b;fill-opacity:1;stroke-linejoin:miter"
			 id="g507">
			<path
				 d="m 195.88739,870.3121 6.16086,57.72544 -25.79512,-57.61764 19.2371,-0.0982 m -91.73999,-79.2218 q -34.261005,-0.0937 -55.655178,17.0209 -26.386922,20.6374 -21.215149,42.352 34.346581,6.27213 45.345447,10.3666 9.06466,1.4502 42.71422,16.808 4.4451,1.5551 12.86383,2.19525 4.60189,17.28449 8.73587,24.3313 31.36914,41.28381 33.74035,48.41321 3.49051,5.87878 10.37294,29.25061 l 56.45598,-3.65797 q 10.11597,-116.3149 11.08673,-124.4297 1.08205,-9.22624 -2.23134,-17.82475 Q 230.01022,798.9013 104.20524,791.103 Z"
				 id="path2778" />
		</g>
		<g
			 style="fill:#ffbe80;fill-opacity:1;stroke-linejoin:miter"
			 id="g511">
			<path
				 d="m 25.288374,740.6786 -42.881462,6.3822 q 2.592803,18.0505 6.676688,29.0911 3.5092555,9.94704 13.4998417,25.2858 l 28.7523963,6.51494 q 6.323992,1.39426 6.989352,1.18969 5.662996,-0.75317 9.678903,-0.96008 L 81.44376,806.8363 q 9.850056,-0.51934 15.289715,-1.2021 12.168805,-1.5396 12.129105,-5.1539 7.49031,7.41124 14.06312,6.867 5.26539,-0.5495 10.03064,-6.08674 4.23987,-5.34266 3.308,-10.18372 -2.8172,-8.34851 -19.94162,-10.01534 -5.2734,-0.393 -11.28606,0.73934 -2.5715,0.31036 -16.40359,4.3711 -2.94771,0.72926 -5.00607,0.97552 -5.47694,0.74214 -11.87372,-0.41586 -9.318374,-1.2497 -44.330394,-15.5993 3.479813,-9.4421 -2.109545,-30.34507"
				 id="path2775" />
		</g>
		<g
			 style="fill:#000000;fill-opacity:1;stroke-linejoin:miter"
			 id="g515">
			<path
				 d="m 258.83728,733.0058 -90.64847,2.34735 -41.39484,70.10425 -59.10208,-1.1556 0.01277,6.2972 56.33333,10.15436 89.66877,-5.07343 3.50006,-10.68003 41.58984,-71.91756"
				 id="path2772" />
		</g>
		<g
			 style="fill:#ffbe80;fill-opacity:1;stroke-linejoin:miter"
			 id="g519">
			<path
				 d="m 95.198425,803.7294 q -0.937141,-1.09476 -10.998045,-2.3762 -12.00616,-1.43084 -15.71356,-0.9549 -1.54822,0.1769 -2.40703,0.84785 l -1.31249,6.26805 q 3.770305,-0.1251 12.18745,-0.81083 6.952034,-0.55727 11.111496,-1.07312 7.698064,-0.95085 7.141074,-1.8869"
				 id="path2769" />
		</g>
		<g
			 style="fill:#000000;fill-opacity:1;stroke-linejoin:miter"
			 id="g523">
			<path
				 d="m 101.2814,893.19165 -14.58062,0.24439 0.24257,69.03846 17.1198,-0.4097 -2.77956,-68.8182"
				 id="path2766" />
		</g>
		<g
			 style="fill:#000000;fill-opacity:1;stroke-linejoin:miter"
			 id="g527">
			<path
				 d="m 181.03978,980.88635 q -3.16631,4.85095 -4.36217,7.60498 -1.27655,2.77467 -2.71798,8.19077 l 9.64057,-2.98374 1.40828,-11.3955 -3.95066,-1.41026"
				 id="path2763" />
		</g>
		<g
			 style="fill:#ee00ff;fill-opacity:1;stroke-linejoin:miter"
			 id="g531">
			<path
				 d="m 20.605324,834.3014 6.368021,16.60485 q -0.581694,-4.89115 -0.855364,-6.63501 L 20.60897,834.3078"
				 id="path2760" />
		</g>
		<g
			 style="fill:#ffbe80;fill-opacity:1;stroke-linejoin:miter"
			 id="g535">
			<path
				 d="m 55.895355,599.4106 q -6.631565,0.154 -8.256408,3.5856 -0.51381,1.11324 -0.560799,2.83565 -0.09835,0.63085 0.371882,5.8399 0.01192,1.2619 -0.176055,1.72635 -0.229355,0.74796 -0.881245,1.2935 l -2.722053,1.7898 q -0.584122,0.61986 -0.759514,1.6938 -0.184826,1.14993 -0.06742,2.6369 l 0.572052,4.782 -3.020564,0.56355 q 0.648017,-3.73115 -5.481763,-8.14691 -2.686233,-1.4931 -3.422512,0.81376 -1.032877,4.8066 1.471015,13.53335 0.78563,2.427 1.76888,3.66425 0.511753,0.85314 3.094734,2.47936 0.400273,0.34744 0.70134,0.86994 0.735302,1.40173 0.918606,3.95355 0.697403,10.01525 -4.433514,19.8844 l 20.984504,7.59509 12.12452,19.32172 4.86568,-17.06316 1.16703,-12.27296 q 6.74954,-6.85541 11.47182,-22.75629 0.470896,-2.0213 0.6071,-4.13171 l 0.220226,-8.6449 0.733694,-10.43974 q 0.20543,-4.3272 -0.14802,-6.90706 -0.51033,-4.89244 -4.00926,-5.7027 -0.993986,-0.27674 -2.59569,-0.31 -7.69771,0.41163 -9.04356,0.0939 -1.15089,0.0533 -11.21266,-2.2025 -2.353826,-0.39667 -4.26865,-0.37854"
				 id="path2757" />
		</g>
		<g
			 style="fill:#000000;fill-opacity:0.235294;stroke-linejoin:miter"
			 id="g539">
			<path
				 d="m 45.284386,653.0613 q 1.08052,1.27854 0.02186,0.0234 m 0.562276,0.6677 13.256784,15.9972 13.509875,-8.3527 q -7.577949,3.87263 -13.607933,2.1673 -5.822155,-1.6993 -13.133482,-9.7852"
				 id="path2754" />
		</g>
		<g
			 style="fill:#000000;fill-opacity:0.117647;stroke-linejoin:miter"
			 id="g543">
			<path
				 d="m 22.086084,706.06036 3.20258,31.69214 q 0.661203,-4.64306 0.76272,-7.45044 0.138366,-3.15956 -0.187704,-6.40916 -0.639645,-6.3985 -3.774582,-17.8231 z m 95.291256,10.47714 -1.47933,28.7135 q 1.75703,-4.4716 2.41465,-7.1167 0.77685,-3.02895 0.91863,-5.9063 0.30223,-5.78775 -1.84977,-15.67105 z m -34.28839,59.21726 q -9.92471,4e-5 -24.53771,1.8833 l 51.70643,1.09809 0.0446,6.1e-4 q -9.23307,-1.62666 -14.48208,-2.21271 -5.92233,-0.68565 -11.33669,-0.75958 -0.68527,-0.01 -1.39454,-0.01 z m 132.16561,64.23754 -17.24119,24.44605 q 7.56133,-6.0509 10.6107,-10.54755 3.48578,-4.9234 6.6185,-13.8635 z m -85.0255,16.04237 -6.38389,11.7688 q 2.49212,-0.83887 3.56763,-1.57297 1.24936,-0.8087 1.90338,-2.008 1.29846,-2.37875 0.91391,-8.1815 z m 17.13347,-34.51977 q 6.68851,3.0031 9.91811,5.7501 3.95795,3.2141 6.64932,8.0978 4.91828,8.23376 10.38773,36.1406 L 171.82288,832.3407 147.365,821.5149 Z m -12.45773,43.2913 -7.24141,10.8021 5.75398,-2.9919 1.48435,-7.7941 z m 67.86987,63.5144 11.3812,52.2397 q 0.43873,-10.4762 0.14058,-15.91906 -0.28679,-6.24954 -1.45333,-11.60608 -2.30094,-10.56176 -10.05838,-24.69782 z m 15.99546,51.7818 q 17.10611,10.0961 25.2268,15.6303 7.25857,4.9139 10.19515,8.4909 l -7.51341,-10.9088 -0.0292,-0.0423 -27.87615,-13.17006 z m 35.43387,24.1356 2.37898,3.4522 q -1.23676,-2.0966 -2.35082,-3.4185 z"
				 id="path2751" />
		</g>
		<g
			 style="fill:#ffffff;fill-opacity:0.384314;stroke-linejoin:miter"
			 id="g547">
			<path
				 d="m 254.3771,1016.7318 q 1.88505,-4.0496 -3.05075,-8.4781 -5.23242,-4.3965 -13.67364,-6.1117 -9.55507,-1.7511 -19.69936,-0.3614 -3.95942,0.5636 -6.47636,1.5438 -1.89624,0.7291 -4.42804,2.9639 -0.57155,0.3064 -1.36908,0.3221 -1.11893,0.01 -3.21086,-0.5362 l -11.62566,-3.4611 q -3.18664,-0.8729 -5.18015,-1.2034 -6.45127,-1.0713 -11.4317,-0.2204 l 0.65241,3.2269 q 1.99779,3.5855 3.46752,5.5332 2.90689,3.8627 6.92884,5.8222 1.20107,0.5582 2.53522,0.7715 9.05275,0.6121 15.04938,1.9628 2.94303,0.6557 5.85182,1.5087 l 11.44527,3.5958 q 2.78204,0.7828 5.40405,1.285 8.41627,1.6704 16.64059,-0.5664 9.44268,-2.7234 12.12734,-7.5169"
				 id="path2748" />
		</g>
		<g
			 style="fill:#000000;fill-opacity:0.996078;stroke-linejoin:miter"
			 id="g551">
			<path
				 d="m 556.2334,603.06146 93.6587,4.4e-4 93.6591,5.4e-4 1.3e-4,401.21126 q -93.65893,5e-4 -187.31793,0 6e-5,-200.60665 0,-401.21334"
				 id="path2745" />
		</g>
		<g
			 style="fill:#222b32;fill-opacity:0.996078;stroke-linejoin:miter"
			 id="g555">
			<path
				 d="m 566.7644,622.50995 83.1278,5e-5 83.12825,2.5e-4 q 0,24.39945 -5e-5,48.79859 -83.1283,1.2e-4 -166.25606,4.6e-4 6e-5,-24.3997 6e-5,-48.79935"
				 id="path2742" />
		</g>
		<g
			 style="fill:#222b32;fill-opacity:0.996078;stroke-linejoin:miter"
			 id="g559">
			<path
				 d="m 581.00397,811.9875 29.23353,5e-4 29.23326,-1e-4 q 0,91.0512 -1.6e-4,182.1024 -29.2333,4.6e-4 -58.4668,2e-4 1.7e-4,-91.0514 1.7e-4,-182.103"
				 id="path2739" />
		</g>
		<g
			 style="fill:#222b32;fill-opacity:0.996078;stroke-linejoin:miter"
			 id="g563">
			<path
				 d="m 660.31415,812.5349 58.46661,5.6e-4 -1.6e-4,182.10204 -58.46664,6e-4 1.9e-4,-182.1032"
				 id="path2736" />
		</g>
		<g
			 style="fill:#222b32;fill-opacity:0.996078;stroke-linejoin:miter"
			 id="g567">
			<path
				 d="m 566.76434,686.0063 166.25606,5e-4 v 48.7985 l -166.25606,6.7e-4 V 686.0063"
				 id="path2733" />
		</g>
		<g
			 style="fill:#222b32;fill-opacity:0.996078;stroke-linejoin:miter"
			 id="g571">
			<path
				 d="m 566.76434,748.408 83.12776,-10e-5 83.1283,6.7e-4 q 0,24.39929 10e-5,48.79863 -83.12817,1.4e-4 -166.2561,5.6e-4 -6e-5,-24.40002 -6e-5,-48.79976"
				 id="path2730" />
		</g>
		<g
			 style="fill:#44c5e5;fill-opacity:0.996078;stroke-linejoin:miter"
			 id="g575">
			<path
				 d="m 669.3914,820.34357 18.18953,3.6e-4 18.18933,7e-5 q 0,9.0038 0,18.00726 -18.18933,4.4e-4 -36.37886,4.9e-4 0,-9.00379 0,-18.00818"
				 id="path2727" />
		</g>
		<g
			 style="fill:#44c5e5;fill-opacity:0.996078;stroke-linejoin:miter"
			 id="g579">
			<path
				 d="m 591.1573,819.95245 36.37883,5.5e-4 v 18.0069 l -36.37883,7.3e-4 v -18.00818"
				 id="path2724" />
		</g>
		<g
			 style="fill:#7d8b96;fill-opacity:0.996078;stroke-linejoin:miter"
			 id="g583">
			<path
				 d="m 315.47116,925.3651 107.31558,5e-4 107.31556,5e-4 q 0,38.7082 0,77.4164 -107.31553,4e-4 -214.6311,6e-4 0,-38.7089 -4e-5,-77.418"
				 id="path2721" />
		</g>
		<g
			 style="fill:#000101;fill-opacity:0.996078;stroke-linejoin:miter"
			 id="g587">
			<path
				 d="m 321.79706,930.0747 100.22931,2e-4 100.22953,6.6e-4 q -4e-5,33.1756 -4e-5,66.35138 -100.22949,2.6e-4 -200.4588,6.1e-4 0,-33.17645 0,-66.35285"
				 id="path2718" />
		</g>
		<g
			 style="fill:#71cfeb;fill-opacity:1;stroke-linejoin:miter"
			 id="g591">
			<path
				 d="m 399.70206,947.03235 0.0691,4.79748 0.0691,4.79797 q -4.2401,0.0609 -8.48015,0.1223 -0.0692,-4.7978 -0.13837,-9.5957 4.24014,-0.061 8.48038,-0.12205"
				 id="path2715" />
		</g>
		<g
			 style="fill:#71cfeb;fill-opacity:1;stroke-linejoin:miter"
			 id="g595">
			<path
				 d="m 387.28104,947.2112 0.13812,9.59556 -8.48013,0.12207 -0.13831,-9.59573 8.48032,-0.1219"
				 id="path2712" />
		</g>
		<g
			 style="fill:#71cfeb;fill-opacity:1;stroke-linejoin:miter"
			 id="g599">
			<path
				 d="m 399.70206,958.2926 0.069,4.7975 0.0691,4.79796 q -4.24011,0.0611 -8.48016,0.12219 -0.0692,-4.79795 -0.13834,-9.59545 4.24014,-0.0612 8.48038,-0.1222"
				 id="path2709" />
		</g>
		<g
			 style="fill:#71cfeb;fill-opacity:1;stroke-linejoin:miter"
			 id="g603">
			<path
				 d="m 387.28104,958.47144 0.13809,9.59556 -8.48013,0.12196 -0.13828,-9.59546 8.48032,-0.12206"
				 id="path2706" />
		</g>
		<g
			 style="fill:#71cfeb;fill-opacity:1;stroke-linejoin:miter"
			 id="g607">
			<path
				 d="m 374.86005,958.6504 0.069,4.7977 0.0691,4.79775 q -4.24007,0.0611 -8.48016,0.12219 -0.0691,-4.79797 -0.13827,-9.59558 4.2402,-0.0611 8.48038,-0.12206"
				 id="path2703" />
		</g>
		<g
			 style="fill:#f7f297;fill-opacity:1;stroke-linejoin:miter"
			 id="g611">
			<path
				 d="m 444.68054,946.4697 0.0691,4.79776 0.0691,4.7976 q -4.24012,0.0611 -8.48023,0.12234 -0.0692,-4.7979 -0.13824,-9.5957 4.24002,-0.0611 8.48031,-0.122"
				 id="path2700" />
		</g>
		<g
			 style="fill:#f7f297;fill-opacity:1;stroke-linejoin:miter"
			 id="g615">
			<path
				 d="m 432.2596,946.6483 0.1381,9.5957 -8.4801,0.1222 -0.1384,-9.5956 8.4804,-0.1223"
				 id="path2697" />
		</g>
		<g
			 style="fill:#f7f297;fill-opacity:1;stroke-linejoin:miter"
			 id="g619">
			<path
				 d="m 419.83856,946.8274 0.069,4.79797 0.069,4.79763 q -4.24002,0.0609 -8.48004,0.12217 -0.0692,-4.79797 -0.13832,-9.59571 4.24016,-0.0612 8.48036,-0.12206"
				 id="path2694" />
		</g>
		<g
			 style="fill:#f7f297;fill-opacity:1;stroke-linejoin:miter"
			 id="g623">
			<path
				 d="m 444.68054,957.72986 0.0691,4.79761 0.0691,4.79783 q -4.24011,0.0612 -8.48022,0.1221 -0.0691,-4.79774 -0.13821,-9.5955 4.24002,-0.061 8.48031,-0.12204"
				 id="path2691" />
		</g>
		<g
			 style="fill:#f7f297;fill-opacity:1;stroke-linejoin:miter"
			 id="g627">
			<path
				 d="m 432.2596,957.9088 0.13804,9.5952 -8.4801,0.12246 -0.13834,-9.59556 8.4804,-0.1221"
				 id="path2688" />
		</g>
		<g
			 style="fill:#f7f297;fill-opacity:1;stroke-linejoin:miter"
			 id="g631">
			<path
				 d="m 419.83856,958.0879 0.069,4.7975 0.069,4.7978 q -4.24002,0.0611 -8.48004,0.1222 -0.0692,-4.7977 -0.13826,-9.59556 4.24016,-0.0611 8.48036,-0.12194"
				 id="path2685" />
		</g>
		<g
			 style="fill:#3c464f;fill-opacity:0.996078;stroke-linejoin:miter"
			 id="g635">
			<path
				 d="m 362.7584,979.16565 56.36404,3.5e-4 56.36419,2e-4 q 0,2.9778 0,5.95557 -56.36419,1.3e-4 -112.72823,5.3e-4 0,-2.9785 0,-5.95665"
				 id="path2682" />
		</g>
		<g
			 style="fill:#7d8b96;fill-opacity:0.996078;stroke-linejoin:miter"
			 id="g639">
			<path
				 d="m 313.96173,844.8022 107.31557,2e-4 107.3156,5e-4 q 0,38.70827 0,77.41664 -107.3156,1.6e-4 -214.63117,5.6e-4 0,-38.70905 0,-77.4179"
				 id="path2679" />
		</g>
		<g
			 style="fill:#000101;fill-opacity:0.996078;stroke-linejoin:miter"
			 id="g643">
			<path
				 d="m 320.28757,849.51154 100.2294,3e-4 100.22937,3.6e-4 q 6e-5,33.1757 6e-5,66.3515 -100.22943,5e-4 -200.45883,7.4e-4 0,-33.17634 0,-66.3529"
				 id="path2676" />
		</g>
		<g
			 style="fill:#f7f297;fill-opacity:1;stroke-linejoin:miter"
			 id="g647">
			<path
				 d="m 326.13297,854.88184 4.79773,-0.069 4.79775,-0.069 q 0.0611,4.23986 0.12225,8.47991 -4.79778,0.0693 -9.59557,0.13875 -0.0611,-4.2403 -0.12216,-8.48066"
				 id="path2673" />
		</g>
		<g
			 style="fill:#3b454e;fill-opacity:1;stroke-linejoin:miter"
			 id="g651">
			<path
				 d="m 326.31192,867.303 9.59555,-0.1383 0.12213,8.4802 -9.59558,0.13855 -0.1221,-8.48045"
				 id="path2670" />
		</g>
		<g
			 style="fill:#3b454e;fill-opacity:1;stroke-linejoin:miter"
			 id="g655">
			<path
				 d="m 326.4908,879.7242 4.7977,-0.0693 4.7978,-0.0692 q 0.0612,4.24024 0.12214,8.48041 -4.79776,0.069 -9.59556,0.13831 -0.061,-4.24012 -0.12208,-8.48015"
				 id="path2667" />
		</g>
		<g
			 style="fill:#3b454e;fill-opacity:1;stroke-linejoin:miter"
			 id="g659">
			<path
				 d="m 338.27777,854.8818 4.79779,-0.0689 4.79776,-0.069 q 0.0612,4.23986 0.12216,8.47991 -4.79778,0.0693 -9.59561,0.13865 -0.061,-4.24027 -0.1221,-8.4806"
				 id="path2664" />
		</g>
		<g
			 style="fill:#3b454e;fill-opacity:1;stroke-linejoin:miter"
			 id="g663">
			<path
				 d="m 338.45667,867.3029 9.59563,-0.1382 0.12214,8.4802 -9.59558,0.1384 -0.12219,-8.4804"
				 id="path2661" />
		</g>
		<g
			 style="fill:#3b454e;fill-opacity:1;stroke-linejoin:miter"
			 id="g667">
			<path
				 d="m 338.63553,879.72406 4.79787,-0.0692 4.79783,-0.0692 q 0.061,4.24024 0.1221,8.48041 -4.79779,0.069 -9.59563,0.13816 -0.061,-4.2401 -0.12217,-8.48014"
				 id="path2658" />
		</g>
		<g
			 style="fill:#f7f297;fill-opacity:1;stroke-linejoin:miter"
			 id="g671">
			<path
				 d="m 350.42267,854.88184 4.79779,-0.0689 4.79779,-0.069 q 0.061,4.23986 0.12215,8.4799 -4.79784,0.0694 -9.59566,0.1387 -0.061,-4.2403 -0.12207,-8.48066"
				 id="path2655" />
		</g>
		<g
			 style="fill:#3b454e;fill-opacity:1;stroke-linejoin:miter"
			 id="g675">
			<path
				 d="m 350.60153,867.303 9.59567,-0.13827 0.12217,8.48023 -9.59574,0.13844 -0.1221,-8.4804"
				 id="path2652" />
		</g>
		<g
			 style="fill:#3b454e;fill-opacity:1;stroke-linejoin:miter"
			 id="g679">
			<path
				 d="m 350.78046,879.7241 4.79776,-0.0692 4.79788,-0.0692 q 0.061,4.2402 0.12213,8.4804 -4.79783,0.069 -9.59563,0.1382 -0.0611,-4.2401 -0.12214,-8.4802"
				 id="path2649" />
		</g>
		<g
			 style="fill:#ff1300;fill-opacity:1;stroke-linejoin:miter"
			 id="g683">
			<path
				 d="m 398.19247,866.4692 0.069,4.7975 0.0691,4.798 q -4.2401,0.0611 -8.48014,0.1221 -0.0692,-4.79776 -0.13833,-9.59555 4.24011,-0.0609 8.48034,-0.12205"
				 id="path2646" />
		</g>
		<g
			 style="fill:#71cfeb;fill-opacity:1;stroke-linejoin:miter"
			 id="g687">
			<path
				 d="m 385.77158,866.6483 0.138,9.5953 -8.48011,0.1221 -0.1383,-9.59556 8.48041,-0.12184"
				 id="path2643" />
		</g>
		<g
			 style="fill:#71cfeb;fill-opacity:1;stroke-linejoin:miter"
			 id="g691">
			<path
				 d="m 373.35052,866.8269 0.069,4.7977 0.069,4.7979 q -4.24002,0.0609 -8.48002,0.1221 -0.0692,-4.79765 -0.13834,-9.5955 4.24012,-0.0611 8.48032,-0.1222"
				 id="path2640" />
		</g>
		<g
			 style="fill:#ff1300;fill-opacity:1;stroke-linejoin:miter"
			 id="g695">
			<path
				 d="m 398.19247,877.7294 0.069,4.79776 0.0691,4.79797 q -4.2401,0.061 -8.48014,0.12201 -0.0692,-4.79779 -0.13833,-9.59544 4.24011,-0.0611 8.48034,-0.1223"
				 id="path2637" />
		</g>
		<g
			 style="fill:#71cfeb;fill-opacity:1;stroke-linejoin:miter"
			 id="g699">
			<path
				 d="m 385.77158,877.90845 0.13809,9.59555 -8.4802,0.12204 -0.1383,-9.59564 8.48041,-0.12195"
				 id="path2634" />
		</g>
		<g
			 style="fill:#71cfeb;fill-opacity:1;stroke-linejoin:miter"
			 id="g703">
			<path
				 d="m 373.35052,878.08716 0.069,4.79784 0.0691,4.79786 q -4.24011,0.061 -8.48011,0.12207 -0.0692,-4.79779 -0.13834,-9.59576 4.24012,-0.061 8.48032,-0.12201"
				 id="path2631" />
		</g>
		<g
			 style="fill:#f7f297;fill-opacity:1;stroke-linejoin:miter"
			 id="g707">
			<path
				 d="m 443.17108,865.90656 0.0689,4.79774 0.0691,4.7977 q -4.24005,0.0611 -8.48005,0.12215 -0.0692,-4.7978 -0.13842,-9.59555 4.24022,-0.061 8.4805,-0.12204"
				 id="path2628" />
		</g>
		<g
			 style="fill:#f7f297;fill-opacity:1;stroke-linejoin:miter"
			 id="g711">
			<path
				 d="m 430.7499,866.08545 0.13816,9.59565 -8.4801,0.12194 -0.13826,-9.59544 8.4802,-0.12215"
				 id="path2625" />
		</g>
		<g
			 style="fill:#f7f297;fill-opacity:1;stroke-linejoin:miter"
			 id="g715">
			<path
				 d="m 418.32895,866.2641 0.0691,4.79803 0.069,4.79767 q -4.24002,0.061 -8.48013,0.12213 -0.0691,-4.79773 -0.13831,-9.59558 4.24021,-0.0611 8.48032,-0.12225"
				 id="path2622" />
		</g>
		<g
			 style="fill:#f7f297;fill-opacity:1;stroke-linejoin:miter"
			 id="g719">
			<path
				 d="m 443.17108,877.1667 0.0689,4.79784 0.0691,4.79776 q -4.24008,0.0611 -8.48008,0.1223 -0.0692,-4.798 -0.13842,-9.59566 4.24022,-0.061 8.4805,-0.12224"
				 id="path2619" />
		</g>
		<g
			 style="fill:#f7f297;fill-opacity:1;stroke-linejoin:miter"
			 id="g723">
			<path
				 d="m 430.7499,877.34576 0.13816,9.59554 -8.4801,0.12205 -0.13826,-9.59565 8.4802,-0.12194"
				 id="path2616" />
		</g>
		<g
			 style="fill:#f7f297;fill-opacity:1;stroke-linejoin:miter"
			 id="g727">
			<path
				 d="m 418.32895,877.5245 0.0691,4.7978 0.069,4.79794 q -4.24002,0.0607 -8.48007,0.12196 -0.0692,-4.7978 -0.13837,-9.59565 4.24021,-0.0611 8.48032,-0.12205"
				 id="path2613" />
		</g>
		<g
			 style="fill:#3c464f;fill-opacity:0.996078;stroke-linejoin:miter"
			 id="g731">
			<path
				 d="m 361.24893,898.6027 56.36407,10e-5 56.3641,5e-4 q 0,2.97775 0,5.9555 -56.3641,0 -112.72817,3.4e-4 0,-2.97814 0,-5.95644"
				 id="path2610" />
		</g>
		<g
			 style="fill:#7d8b96;fill-opacity:0.996078;stroke-linejoin:miter"
			 id="g735">
			<path
				 d="m 314.2643,764.7321 107.31563,4e-4 107.31552,5e-4 q 5e-5,38.70847 5e-5,77.4167 -107.31554,1.4e-4 -214.63116,5e-4 0,-38.70885 -4e-5,-77.4181"
				 id="path2607" />
		</g>
		<g
			 style="fill:#000101;fill-opacity:0.996078;stroke-linejoin:miter"
			 id="g739">
			<path
				 d="m 320.59015,769.4416 100.22943,3e-4 100.22922,3.6e-4 q 1.5e-4,33.17584 1.5e-4,66.35164 -100.22935,3.5e-4 -200.45877,9e-4 0,-33.17664 -3e-5,-66.3532"
				 id="path2604" />
		</g>
		<g
			 style="fill:#ff2c00;fill-opacity:0.996078;stroke-linejoin:miter"
			 id="g743">
			<path
				 d="m 326.43567,774.8122 4.79776,-0.0693 4.79782,-0.0689 q 0.061,4.23994 0.12207,8.4802 -4.79776,0.0689 -9.59555,0.13816 -0.0611,-4.24011 -0.1221,-8.48016"
				 id="path2601" />
		</g>
		<g
			 style="fill:#ff2c00;fill-opacity:0.996078;stroke-linejoin:miter"
			 id="g747">
			<path
				 d="m 326.6145,787.23303 9.59558,-0.13813 0.12212,8.4801 -9.59557,0.1385 -0.12213,-8.48047"
				 id="path2598" />
		</g>
		<g
			 style="fill:#ff2c00;fill-opacity:0.996078;stroke-linejoin:miter"
			 id="g751">
			<path
				 d="m 326.79337,799.65424 4.79779,-0.0691 4.79782,-0.0693 q 0.0611,4.2401 0.12222,8.48035 -4.79782,0.0692 -9.59558,0.13845 -0.0611,-4.2402 -0.12225,-8.48036"
				 id="path2595" />
		</g>
		<g
			 style="fill:#ff2c00;fill-opacity:0.996078;stroke-linejoin:miter"
			 id="g755">
			<path
				 d="m 338.5804,774.81213 4.79777,-0.0692 4.79783,-0.0689 q 0.0611,4.23994 0.12222,8.4802 -4.79782,0.0689 -9.59567,0.1381 -0.0611,-4.2401 -0.12215,-8.48017"
				 id="path2592" />
		</g>
		<g
			 style="fill:#ff2c00;fill-opacity:0.996078;stroke-linejoin:miter"
			 id="g759">
			<path
				 d="m 338.75934,787.233 9.59564,-0.1381 0.1221,8.4801 -9.59561,0.13844 -0.12213,-8.48044"
				 id="path2589" />
		</g>
		<g
			 style="fill:#ff2c00;fill-opacity:0.996078;stroke-linejoin:miter"
			 id="g763">
			<path
				 d="m 338.93823,799.6542 4.79782,-0.0691 4.79775,-0.0693 q 0.0612,4.2401 0.12224,8.48035 -4.79789,0.0692 -9.59574,0.13831 -0.061,-4.24016 -0.12207,-8.48026"
				 id="path2586" />
		</g>
		<g
			 style="fill:#ff2c00;fill-opacity:0.996078;stroke-linejoin:miter"
			 id="g767">
			<path
				 d="m 350.72525,774.8122 4.79782,-0.0692 4.79783,-0.0689 q 0.0611,4.2399 0.12218,8.48014 -4.79782,0.069 -9.59561,0.13812 -0.0611,-4.24011 -0.12222,-8.48016"
				 id="path2583" />
		</g>
		<g
			 style="fill:#ff2c00;fill-opacity:0.996078;stroke-linejoin:miter"
			 id="g771">
			<path
				 d="m 350.90424,787.23303 9.59561,-0.13803 0.1221,8.4801 -9.59561,0.1384 -0.1221,-8.48047"
				 id="path2580" />
		</g>
		<g
			 style="fill:#ff2c00;fill-opacity:0.996078;stroke-linejoin:miter"
			 id="g775">
			<path
				 d="m 351.08307,799.65424 4.79785,-0.0691 4.79782,-0.0693 q 0.0611,4.24013 0.1221,8.48033 -4.79779,0.0692 -9.59564,0.1383 -0.0611,-4.24015 -0.12213,-8.48026"
				 id="path2577" />
		</g>
		<g
			 style="fill:#71cfeb;fill-opacity:1;stroke-linejoin:miter"
			 id="g779">
			<path
				 d="m 398.4951,786.3992 0.069,4.79794 0.0691,4.79761 q -4.24011,0.061 -8.48014,0.12201 -0.0692,-4.79766 -0.13836,-9.59546 4.2402,-0.061 8.48036,-0.1221"
				 id="path2574" />
		</g>
		<g
			 style="fill:#71cfeb;fill-opacity:1;stroke-linejoin:miter"
			 id="g783">
			<path
				 d="m 386.07416,786.5781 0.13814,9.5956 -8.48018,0.12214 -0.13834,-9.59564 8.48038,-0.1221"
				 id="path2571" />
		</g>
		<g
			 style="fill:#71cfeb;fill-opacity:1;stroke-linejoin:miter"
			 id="g787">
			<path
				 d="m 373.65314,786.75696 0.069,4.79797 0.069,4.79773 q -4.24008,0.061 -8.48007,0.12207 -0.0692,-4.79773 -0.13833,-9.59558 4.24016,-0.0611 8.48034,-0.12219"
				 id="path2568" />
		</g>
		<g
			 style="fill:#71cfeb;fill-opacity:1;stroke-linejoin:miter"
			 id="g791">
			<path
				 d="m 398.4951,797.65967 0.069,4.79767 0.0691,4.79786 q -4.24011,0.061 -8.48014,0.1221 -0.0692,-4.79765 -0.13836,-9.59556 4.2402,-0.061 8.48036,-0.12207"
				 id="path2565" />
		</g>
		<g
			 style="fill:#71cfeb;fill-opacity:1;stroke-linejoin:miter"
			 id="g795">
			<path
				 d="m 386.07416,797.8385 0.13814,9.5955 -8.48018,0.1221 -0.13834,-9.5956 8.48038,-0.122"
				 id="path2562" />
		</g>
		<g
			 style="fill:#71cfeb;fill-opacity:1;stroke-linejoin:miter"
			 id="g799">
			<path
				 d="m 373.65314,798.01733 0.069,4.79787 0.069,4.7977 q -4.24008,0.0611 -8.48007,0.1222 -0.0692,-4.7979 -0.13833,-9.5956 4.24016,-0.0612 8.48034,-0.12217"
				 id="path2559" />
		</g>
		<g
			 style="fill:#f7f297;fill-opacity:1;stroke-linejoin:miter"
			 id="g803">
			<path
				 d="m 443.47363,785.8366 0.0691,4.79786 0.0691,4.79761 q -4.24016,0.0611 -8.48015,0.12213 -0.0692,-4.7978 -0.13833,-9.5956 4.2402,-0.061 8.48031,-0.122"
				 id="path2556" />
		</g>
		<g
			 style="fill:#f7f297;fill-opacity:1;stroke-linejoin:miter"
			 id="g807">
			<path
				 d="m 431.05267,786.0155 0.13813,9.59565 -8.48017,0.122 -0.1383,-9.59555 8.48034,-0.1221"
				 id="path2553" />
		</g>
		<g
			 style="fill:#f7f297;fill-opacity:1;stroke-linejoin:miter"
			 id="g811">
			<path
				 d="m 418.63165,786.1943 0.0691,4.79795 0.0691,4.79765 q -4.24008,0.061 -8.48016,0.1221 -0.0691,-4.79786 -0.1383,-9.59553 4.24014,-0.0611 8.48031,-0.12217"
				 id="path2550" />
		</g>
		<g
			 style="fill:#f7f297;fill-opacity:1;stroke-linejoin:miter"
			 id="g815">
			<path
				 d="m 443.47363,797.09674 0.0691,4.79791 0.0691,4.79795 q -4.24016,0.0611 -8.48015,0.12204 -0.0692,-4.79767 -0.13833,-9.59564 4.2402,-0.061 8.48031,-0.12226"
				 id="path2547" />
		</g>
		<g
			 style="fill:#f7f297;fill-opacity:1;stroke-linejoin:miter"
			 id="g819">
			<path
				 d="m 431.05267,797.2757 0.13813,9.5955 -8.48017,0.12227 -0.1383,-9.59567 8.48034,-0.1221"
				 id="path2544" />
		</g>
		<g
			 style="fill:#f7f297;fill-opacity:1;stroke-linejoin:miter"
			 id="g823">
			<path
				 d="m 418.63165,797.4545 0.0691,4.798 0.0691,4.7978 q -4.24008,0.061 -8.48016,0.1221 -0.0691,-4.79764 -0.1383,-9.59586 4.24014,-0.061 8.48031,-0.12204"
				 id="path2541" />
		</g>
		<g
			 style="fill:#3c464f;fill-opacity:0.996078;stroke-linejoin:miter"
			 id="g827">
			<path
				 d="m 361.5515,818.53296 56.36415,1.8e-4 56.36415,6e-5 q 0,2.9779 0,5.95563 -56.36415,3.7e-4 -112.7283,5.7e-4 0,-2.97835 0,-5.95644"
				 id="path2538" />
		</g>
		<g
			 style="fill:#7d8b96;fill-opacity:0.996078;stroke-linejoin:miter"
			 id="g831">
			<path
				 d="m 312.75485,684.1691 107.31555,3e-4 107.3156,5e-4 q 0,38.70833 0,77.41646 -107.31563,3.4e-4 -214.63118,7.4e-4 3e-5,-38.709 3e-5,-77.418"
				 id="path2535" />
		</g>
		<g
			 style="fill:#000101;fill-opacity:0.996078;stroke-linejoin:miter"
			 id="g835">
			<path
				 d="m 319.08072,688.87854 100.22934,3.6e-4 100.22931,4.3e-4 q 1.3e-4,33.17557 3e-5,66.35132 -100.22937,4.5e-4 -200.4587,6.5e-4 2e-5,-33.1762 2e-5,-66.35276"
				 id="path2532" />
		</g>
		<g
			 style="fill:#3b454e;fill-opacity:1;stroke-linejoin:miter"
			 id="g839">
			<path
				 d="m 325.10504,706.6699 9.59552,-0.1382 0.12214,8.48 -9.59553,0.13875 -0.12213,-8.48055"
				 id="path2529" />
		</g>
		<g
			 style="fill:#3b454e;fill-opacity:1;stroke-linejoin:miter"
			 id="g843">
			<path
				 d="m 325.28397,719.09094 4.7977,-0.0691 4.79776,-0.0691 q 0.0611,4.24 0.12222,8.48004 -4.79788,0.0694 -9.59561,0.13856 -0.061,-4.24006 -0.12207,-8.48036"
				 id="path2526" />
		</g>
		<g
			 style="fill:#3b454e;fill-opacity:1;stroke-linejoin:miter"
			 id="g847">
			<path
				 d="m 337.2498,706.6698 9.59563,-0.1381 0.12217,8.48 -9.59565,0.13857 -0.12215,-8.48047"
				 id="path2523" />
		</g>
		<g
			 style="fill:#3b454e;fill-opacity:1;stroke-linejoin:miter"
			 id="g851">
			<path
				 d="m 337.42874,719.0908 4.79779,-0.0689 4.79782,-0.0691 q 0.0611,4.24 0.12213,8.48004 -4.79782,0.0694 -9.59564,0.13843 -0.0611,-4.24012 -0.1221,-8.48037"
				 id="path2520" />
		</g>
		<g
			 style="fill:#3b454e;fill-opacity:1;stroke-linejoin:miter"
			 id="g855">
			<path
				 d="m 349.57355,719.0909 4.79785,-0.069 4.79776,-0.0691 q 0.0611,4.23999 0.12216,8.48004 -4.79779,0.0693 -9.59558,0.1384 -0.0611,-4.2401 -0.12219,-8.4803"
				 id="path2517" />
		</g>
		<g
			 style="fill:#ff1300;fill-opacity:1;stroke-linejoin:miter"
			 id="g859">
			<path
				 d="m 396.98566,705.83606 0.069,4.79774 0.0691,4.79796 q -4.24018,0.061 -8.48013,0.1222 -0.0691,-4.79792 -0.13831,-9.59586 4.24006,-0.0608 8.48032,-0.12204"
				 id="path2514" />
		</g>
		<g
			 style="fill:#71cfeb;fill-opacity:1;stroke-linejoin:miter"
			 id="g863">
			<path
				 d="m 384.56464,706.0149 0.13816,9.59563 -8.4802,0.12214 -0.1383,-9.59557 8.48034,-0.1222"
				 id="path2511" />
		</g>
		<g
			 style="fill:#71cfeb;fill-opacity:1;stroke-linejoin:miter"
			 id="g867">
			<path
				 d="m 372.14362,706.19385 0.0691,4.79775 0.0691,4.7979 q -4.24008,0.0608 -8.48014,0.122 -0.0692,-4.7977 -0.1383,-9.5956 4.2402,-0.061 8.48032,-0.12205"
				 id="path2508" />
		</g>
		<g
			 style="fill:#ff1300;fill-opacity:1;stroke-linejoin:miter"
			 id="g871">
			<path
				 d="m 396.98566,717.09644 0.069,4.79773 0.0691,4.79779 q -4.24018,0.0611 -8.48013,0.12237 -0.0691,-4.79783 -0.13831,-9.59583 4.24006,-0.0609 8.48032,-0.12206"
				 id="path2505" />
		</g>
		<g
			 style="fill:#71cfeb;fill-opacity:1;stroke-linejoin:miter"
			 id="g875">
			<path
				 d="m 384.56464,717.2755 0.13816,9.59535 -8.4802,0.12215 -0.1383,-9.5956 8.48034,-0.1219"
				 id="path2502" />
		</g>
		<g
			 style="fill:#71cfeb;fill-opacity:1;stroke-linejoin:miter"
			 id="g879">
			<path
				 d="m 372.14362,717.454 0.0691,4.79795 0.0691,4.79765 q -4.24008,0.061 -8.48014,0.1223 -0.0692,-4.79775 -0.1383,-9.5957 4.2402,-0.061 8.48032,-0.1222"
				 id="path2499" />
		</g>
		<g
			 style="fill:#f7f297;fill-opacity:1;stroke-linejoin:miter"
			 id="g883">
			<path
				 d="m 441.96414,705.2734 0.0691,4.79764 0.0691,4.79796 q -4.24021,0.0612 -8.48013,0.1222 -0.0693,-4.79784 -0.1384,-9.59563 4.24014,-0.061 8.48034,-0.12217"
				 id="path2496" />
		</g>
		<g
			 style="fill:#f7f297;fill-opacity:1;stroke-linejoin:miter"
			 id="g887">
			<path
				 d="m 429.5432,705.4524 0.13804,9.5954 -8.48004,0.1223 -0.13833,-9.59564 8.48033,-0.12206"
				 id="path2493" />
		</g>
		<g
			 style="fill:#f7f297;fill-opacity:1;stroke-linejoin:miter"
			 id="g891">
			<path
				 d="m 417.12222,705.631 0.069,4.798 0.0691,4.7978 q -4.24008,0.061 -8.48013,0.12214 -0.0693,-4.79774 -0.13835,-9.59571 4.2401,-0.0611 8.48042,-0.12223"
				 id="path2490" />
		</g>
		<g
			 style="fill:#f7f297;fill-opacity:1;stroke-linejoin:miter"
			 id="g895">
			<path
				 d="m 441.96414,716.5337 0.0691,4.7978 0.0691,4.7979 q -4.24021,0.061 -8.48013,0.1221 -0.0693,-4.7979 -0.1384,-9.59556 4.24014,-0.0609 8.48034,-0.12224"
				 id="path2487" />
		</g>
		<g
			 style="fill:#f7f297;fill-opacity:1;stroke-linejoin:miter"
			 id="g899">
			<path
				 d="m 429.5432,716.71277 0.13804,9.59563 -8.48004,0.122 -0.13833,-9.59556 8.48033,-0.12207"
				 id="path2484" />
		</g>
		<g
			 style="fill:#f7f297;fill-opacity:1;stroke-linejoin:miter"
			 id="g903">
			<path
				 d="m 417.12222,716.89124 0.069,4.79796 0.0691,4.7978 q -4.24008,0.061 -8.48013,0.12225 -0.0691,-4.79775 -0.13835,-9.59565 4.2401,-0.0611 8.48042,-0.12236"
				 id="path2481" />
		</g>
		<g
			 style="fill:#3c464f;fill-opacity:0.996078;stroke-linejoin:miter"
			 id="g907">
			<path
				 d="m 360.042,737.9698 56.36416,5e-5 56.36416,2.5e-4 q 0,2.97796 -2e-5,5.9557 -56.36417,10e-5 -112.72834,3e-4 4e-5,-2.97804 4e-5,-5.9563"
				 id="path2478" />
		</g>
		<g
			 style="fill:#000509;fill-opacity:0.996078;stroke-linejoin:miter"
			 id="g911">
			<path
				 d="m 477.29926,645.462 v 1.6e-4 0 0 -1.6e-4 1.6e-4 0 q 0,0 0,-1.6e-4"
				 id="path2475" />
		</g>
	</g>
</svg>
